<svg width="21" height="38" viewBox="0 0 21 38" fill="none" xmlns="http://www.w3.org/2000/svg">
<g clip-path="url(#clip0_275_1024)">
<path d="M10.5036 35.2524C10.1002 35.2524 9.77014 34.9282 9.77014 34.532V27.861C9.77014 27.4648 10.1002 27.1406 10.5036 27.1406C10.9071 27.1406 11.2371 27.4648 11.2371 27.861V34.532C11.2371 34.9282 10.9071 35.2524 10.5036 35.2524Z" fill="#FE724C"/>
<path d="M10.5036 37.7234C7.75303 37.7234 3.10266 37.1687 3.10266 35.0795C3.10266 33.4298 6.01464 32.8174 7.75303 32.6013C8.15645 32.5509 8.5232 32.8318 8.57454 33.2281C8.62589 33.6243 8.33982 33.9845 7.9364 34.0349C5.77992 34.3087 4.77503 34.8418 4.58432 35.0867C4.89973 35.5262 7.08555 36.2826 10.5036 36.2826C13.9217 36.2826 16.1076 35.5262 16.423 35.0867C16.2322 34.8418 15.242 34.3159 13.1076 34.0421C13.0929 34.0421 13.0855 34.0421 13.0709 34.0421C12.7041 33.9989 12.4327 33.6819 12.4327 33.3289C12.4327 33.3001 12.4327 33.2713 12.4327 33.2353C12.4841 32.839 12.8508 32.5653 13.2543 32.6085C14.9926 32.8246 17.9046 33.437 17.9046 35.0867C17.9046 37.1687 13.2543 37.7306 10.5036 37.7306V37.7234Z" fill="#FE724C"/>
<path d="M10.5036 6.004C7.75303 6.004 3.10266 5.44929 3.10266 3.36012C3.10266 2.96389 3.43273 2.63971 3.83616 2.63971C4.23958 2.63971 4.55498 2.94949 4.56965 3.3313C4.80437 3.77075 7.00486 4.56319 10.5036 4.56319C14.0024 4.56319 16.1076 3.80677 16.423 3.36732C16.2322 3.12238 15.242 2.59649 13.1076 2.32273C13.0929 2.32273 13.0855 2.32273 13.0709 2.32273C12.7041 2.27231 12.4327 1.96253 12.4327 1.60953C12.4327 1.58072 12.4327 1.5519 12.4327 1.51588C12.4841 1.11966 12.8508 0.845904 13.2543 0.889128C14.9926 1.10525 17.9046 1.71759 17.9046 3.36732C17.9046 5.44929 13.2543 6.01121 10.5036 6.01121V6.004Z" fill="#FE724C"/>
<path d="M4.61374 15.6285C0.931592 15.6285 0.38147 14.1012 0.38147 13.1863C0.38147 12.2714 0.931592 10.7441 4.61374 10.7441C7.35702 10.7441 10.7018 12.4731 10.8411 12.5452C11.0832 12.6676 11.2299 12.9126 11.2299 13.1791C11.2299 13.4457 11.0832 13.6906 10.8411 13.8131C10.7018 13.8851 7.35702 15.6141 4.61374 15.6141V15.6285ZM4.61374 12.1922C3.96093 12.1922 1.84846 12.2642 1.84846 13.1935C1.84846 14.1228 3.96827 14.1949 4.61374 14.1949C5.98538 14.1949 7.61374 13.6546 8.74333 13.1935C7.60641 12.7325 5.98538 12.1922 4.61374 12.1922Z" fill="#FE724C"/>
<path d="M10.5037 13.9068C10.2396 13.9068 9.9902 13.77 9.85817 13.525C9.66747 13.172 9.80683 12.7398 10.1589 12.5525C10.2983 12.4804 13.643 10.7515 16.3863 10.7515C20.0684 10.7515 20.6186 12.2787 20.6186 13.1936C20.6186 13.5899 20.2885 13.914 19.8851 13.914C19.4816 13.914 19.1516 13.5899 19.1516 13.1936C19.1516 12.2643 17.0318 12.1923 16.3863 12.1923C14.0098 12.1923 10.8777 13.8132 10.8484 13.8276C10.7384 13.8852 10.621 13.914 10.5037 13.914V13.9068Z" fill="#FE724C"/>
<path d="M10.5037 26.1464C7.81178 26.1464 5.12719 25.1379 3.08073 23.1279C0.33012 20.4264 -0.67477 16.4786 0.46215 12.8261L3.19076 3.17271C3.30078 2.7909 3.7042 2.56757 4.09296 2.66843C4.48171 2.77649 4.70909 3.17271 4.6064 3.55453L1.87046 13.2224C0.887577 16.3849 1.7531 19.7853 4.11496 22.105C5.82401 23.7835 8.09051 24.7056 10.5037 24.7056C12.9169 24.7056 15.1834 23.7835 16.8925 22.105C19.2543 19.7853 20.1199 16.3921 19.1443 13.244V13.2224H19.137L16.401 3.54733C16.291 3.16551 16.5184 2.76929 16.9145 2.66123C17.3032 2.55317 17.7067 2.77649 17.8167 3.16551L20.5526 12.8261C21.6822 16.4786 20.6773 20.4264 17.934 23.1279C15.8876 25.1379 13.1956 26.1464 10.511 26.1464H10.5037Z" fill="#FE724C"/>
<path d="M3.82883 4.10929C3.42541 4.10929 3.09534 3.7635 3.09534 3.36728C3.10267 1.2781 7.75304 0.723389 10.5036 0.723389C10.9071 0.723389 11.2371 1.04757 11.2371 1.44379C11.2371 1.84002 10.9071 2.1642 10.5036 2.1642C6.9682 2.1642 4.76037 2.97105 4.56233 3.4033C4.56233 3.79952 4.23959 4.10209 3.82883 4.10209V4.10929Z" fill="#FE724C"/>
</g>
<defs>
<clipPath id="clip0_275_1024">
<rect width="21" height="37" fill="white" transform="translate(0 0.723389)"/>
</clipPath>
</defs>
</svg>
