<svg width="21" height="38" viewBox="0 0 21 38" fill="none" xmlns="http://www.w3.org/2000/svg">
<g clip-path="url(#clip0_275_970)">
<path d="M10.5036 35.3043C10.1002 35.3043 9.77014 34.9801 9.77014 34.5839V27.9129C9.77014 27.5167 10.1002 27.1925 10.5036 27.1925C10.9071 27.1925 11.2371 27.5167 11.2371 27.9129V34.5839C11.2371 34.9801 10.9071 35.3043 10.5036 35.3043Z" fill="#FE724C"/>
<path d="M10.5036 37.7753C7.75303 37.7753 3.10266 37.2206 3.10266 35.1314C3.10266 33.4817 6.01464 32.8693 7.75303 32.6532C8.15645 32.6028 8.5232 32.8837 8.57454 33.2799C8.62589 33.6762 8.33982 34.0364 7.9364 34.0868C5.77992 34.3606 4.77503 34.8937 4.58432 35.1386C4.89973 35.578 7.08555 36.3345 10.5036 36.3345C13.9217 36.3345 16.1076 35.578 16.423 35.1386C16.2322 34.8937 15.242 34.3678 13.1076 34.094C13.0929 34.094 13.0855 34.094 13.0709 34.094C12.7041 34.0508 12.4327 33.7338 12.4327 33.3808C12.4327 33.352 12.4327 33.3232 12.4327 33.2872C12.4841 32.8909 12.8508 32.6172 13.2543 32.6604C14.9926 32.8765 17.9046 33.4889 17.9046 35.1386C17.9046 37.2206 13.2543 37.7825 10.5036 37.7825V37.7753Z" fill="#FE724C"/>
<path d="M10.5036 6.05588C7.75303 6.05588 3.10266 5.50117 3.10266 3.412C3.10266 3.01577 3.43273 2.69159 3.83616 2.69159C4.23958 2.69159 4.55498 3.00137 4.56965 3.38318C4.80437 3.82263 7.00486 4.61507 10.5036 4.61507C14.0024 4.61507 16.1076 3.85865 16.423 3.4192C16.2322 3.17426 15.242 2.64837 13.1076 2.37461C13.0929 2.37461 13.0855 2.37461 13.0709 2.37461C12.7041 2.32419 12.4327 2.01441 12.4327 1.66141C12.4327 1.6326 12.4327 1.60378 12.4327 1.56776C12.4841 1.17154 12.8508 0.897783 13.2543 0.941008C14.9926 1.15713 17.9046 1.76947 17.9046 3.4192C17.9046 5.50117 13.2543 6.06309 10.5036 6.06309V6.05588Z" fill="#FE724C"/>
<path d="M4.61374 15.6805C0.931592 15.6805 0.38147 14.1532 0.38147 13.2383C0.38147 12.3234 0.931592 10.7961 4.61374 10.7961C7.35702 10.7961 10.7018 12.5251 10.8411 12.5972C11.0832 12.7196 11.2299 12.9646 11.2299 13.2311C11.2299 13.4977 11.0832 13.7426 10.8411 13.8651C10.7018 13.9371 7.35702 15.6661 4.61374 15.6661V15.6805ZM4.61374 12.2442C3.96093 12.2442 1.84846 12.3162 1.84846 13.2455C1.84846 14.1748 3.96827 14.2469 4.61374 14.2469C5.98538 14.2469 7.61374 13.7066 8.74333 13.2455C7.60641 12.7845 5.98538 12.2442 4.61374 12.2442Z" fill="#FE724C"/>
<path d="M10.5037 13.9587C10.2396 13.9587 9.9902 13.8218 9.85817 13.5769C9.66747 13.2239 9.80683 12.7917 10.1589 12.6044C10.2983 12.5323 13.643 10.8033 16.3863 10.8033C20.0684 10.8033 20.6186 12.3306 20.6186 13.2455C20.6186 13.6417 20.2885 13.9659 19.8851 13.9659C19.4816 13.9659 19.1516 13.6417 19.1516 13.2455C19.1516 12.3162 17.0318 12.2442 16.3863 12.2442C14.0098 12.2442 10.8777 13.8651 10.8484 13.8795C10.7384 13.9371 10.621 13.9659 10.5037 13.9659V13.9587Z" fill="#FE724C"/>
<path d="M10.5037 26.1983C7.81178 26.1983 5.12719 25.1897 3.08073 23.1798C0.33012 20.4783 -0.67477 16.5305 0.46215 12.878L3.19076 3.22459C3.30078 2.84278 3.7042 2.61945 4.09296 2.72031C4.48171 2.82837 4.70909 3.22459 4.6064 3.60641L1.87046 13.2742C0.887577 16.4368 1.7531 19.8371 4.11496 22.1568C5.82401 23.8354 8.09051 24.7575 10.5037 24.7575C12.9169 24.7575 15.1834 23.8354 16.8925 22.1568C19.2543 19.8371 20.1199 16.444 19.1443 13.2959V13.2742H19.137L16.401 3.59921C16.291 3.21739 16.5184 2.82117 16.9145 2.71311C17.3032 2.60505 17.7066 2.82837 17.8167 3.21739L20.5526 12.878C21.6822 16.5305 20.6773 20.4783 17.934 23.1798C15.8876 25.1897 13.1956 26.1983 10.511 26.1983H10.5037Z" fill="#FE724C"/>
<path d="M3.82883 4.16117C3.42541 4.16117 3.09534 3.81538 3.09534 3.41915C3.10267 1.32998 7.75304 0.775269 10.5036 0.775269C10.9071 0.775269 11.2371 1.09945 11.2371 1.49567C11.2371 1.8919 10.9071 2.21608 10.5036 2.21608C6.9682 2.21608 4.76037 3.02293 4.56233 3.45518C4.56233 3.8514 4.23959 4.15397 3.82883 4.15397V4.16117Z" fill="#FE724C"/>
</g>
<defs>
<clipPath id="clip0_275_970">
<rect width="21" height="37" fill="white" transform="translate(0 0.775269)"/>
</clipPath>
</defs>
</svg>
