<svg width="19" height="38" viewBox="0 0 19 38" fill="none" xmlns="http://www.w3.org/2000/svg">
<g clip-path="url(#clip0_275_1110)">
<path d="M12.3747 20.0616C12.0827 20.0616 11.8231 19.8666 11.7452 19.5742L10.2528 13.6805C10.1879 13.4336 10.0646 13.2061 9.88937 13.0242L6.35283 9.65169C6.26198 9.56721 6.20358 9.45674 6.17113 9.33978L5.04203 4.9016C4.95119 4.5507 5.16533 4.19981 5.50925 4.10883C5.85966 4.01786 6.21007 4.2323 6.30091 4.5767L7.38459 8.83943L10.8043 12.1015C11.1547 12.4654 11.3948 12.8942 11.5116 13.3621L13.0041 19.2558C13.095 19.6067 12.8808 19.9576 12.5369 20.0486C12.485 20.0616 12.4266 20.0681 12.3747 20.0681V20.0616Z" fill="#FE724C"/>
<path d="M3.80262 19.7432C3.51061 19.7432 3.25104 19.5482 3.17318 19.2558L2.27119 15.7144C2.15439 15.2465 2.16088 14.7592 2.28417 14.2978L3.73772 9.76864L2.65405 5.5059C2.5632 5.15501 2.77734 4.80411 3.12126 4.71314C3.47167 4.62866 3.82208 4.8366 3.91293 5.181L5.04203 9.61918C5.07447 9.73615 5.06798 9.85961 5.02905 9.97657L3.52359 14.6552C3.46518 14.8761 3.45869 15.136 3.52359 15.383L4.42557 18.9244C4.51641 19.2753 4.30227 19.6262 3.95835 19.7172C3.90644 19.7302 3.84804 19.7367 3.79613 19.7367L3.80262 19.7432Z" fill="#FE724C"/>
<path d="M2.94605 4.62872C2.65405 4.62872 2.39448 4.43377 2.31661 4.14136L1.81047 2.13996C1.71962 1.78906 1.93376 1.43816 2.27768 1.34719L4.65917 0.742871C4.82788 0.697384 5.00309 0.723377 5.15234 0.814349C5.30159 0.905322 5.40541 1.04828 5.45083 1.21073L5.95698 3.21214C6.00241 3.38109 5.97645 3.55653 5.8856 3.70599C5.79476 3.85545 5.652 3.95941 5.48977 4.0049L3.10828 4.60922C3.05637 4.62222 2.99797 4.62872 2.94605 4.62872V4.62872ZM3.22508 2.44536L3.41327 3.18614L4.53588 2.90023L4.34769 2.15945L3.22508 2.44536V2.44536Z" fill="#FE724C"/>
<path d="M16.5666 36.3198C16.5666 36.3198 16.5211 36.3198 16.5017 36.3198C16.1448 36.2808 15.8852 35.9689 15.9177 35.6115L17.7086 17.6899C17.7476 17.3325 18.059 17.0725 18.4159 17.105C18.7728 17.144 19.0324 17.4559 19 17.8133L17.209 35.735C17.1765 36.0729 16.891 36.3198 16.5666 36.3198V36.3198Z" fill="#FE724C"/>
<path d="M2.43994 36.3197C2.109 36.3197 1.82997 36.0728 1.79753 35.7349L5.25759e-05 17.8067C-0.0323928 17.4493 0.22717 17.1309 0.584069 17.0984C0.940968 17.066 1.25893 17.3259 1.29138 17.6833L3.08236 35.6049C3.11481 35.9623 2.85524 36.2807 2.49834 36.3132C2.47888 36.3132 2.45292 36.3132 2.43345 36.3132L2.43994 36.3197Z" fill="#FE724C"/>
<path d="M9.5 20.1527C7.91667 20.1527 0 20.0422 0 17.7419C0 17.2286 0.356899 16.7997 1.0707 16.4683C1.39515 16.3189 1.78449 16.4553 1.93374 16.7802C2.08299 17.1051 1.94672 17.495 1.62227 17.6445C1.5444 17.6834 1.47951 17.7159 1.4276 17.7484C2.14788 18.1838 4.89276 18.8531 9.5 18.8531C14.1072 18.8531 16.8586 18.1838 17.5789 17.7484C17.1766 17.508 16.002 17.0791 13.4454 16.8192C13.0885 16.7802 12.8289 16.4618 12.8678 16.1044C12.9068 15.747 13.2182 15.4871 13.5816 15.5261C19.013 16.0784 19.013 17.3326 19.013 17.7419C19.013 20.0357 11.0963 20.1527 9.51298 20.1527H9.5Z" fill="#FE724C"/>
<path d="M9.50005 37.7235C7.6896 37.7235 1.78455 37.574 1.78455 35.6701C1.78455 35.3127 2.07655 35.0203 2.43345 35.0203C2.73844 35.0203 2.998 35.2347 3.06289 35.5206C3.47819 35.8455 5.71043 36.4238 9.49356 36.4238C13.2767 36.4238 15.5154 35.8455 15.9242 35.5206C15.9891 35.2347 16.2487 35.0203 16.5537 35.0203C16.9106 35.0203 17.2026 35.3127 17.2026 35.6701C17.2026 37.574 11.2975 37.7235 9.48707 37.7235H9.50005Z" fill="#FE724C"/>
<path d="M7.02117 23.0638C6.98873 23.0638 6.94979 23.0638 6.91735 23.0573C2.77732 22.3945 0 20.2566 0 17.7418C0 17.3845 0.292008 17.092 0.648907 17.092C1.00581 17.092 1.29781 17.3845 1.29781 17.7418C1.29781 19.5353 3.74419 21.2313 7.125 21.7706C7.4819 21.8291 7.72199 22.1605 7.66359 22.5179C7.61168 22.8363 7.33914 23.0638 7.02117 23.0638Z" fill="#FE724C"/>
<path d="M15.6321 29.1718H8.80565C8.44875 29.1718 8.15674 28.8794 8.15674 28.522V19.4962C8.15674 19.1388 8.44875 18.8464 8.80565 18.8464C9.16254 18.8464 9.45455 19.1388 9.45455 19.4962V27.8722H14.9832V19.0868C14.9832 18.7294 15.2752 18.437 15.6321 18.437C15.989 18.437 16.2811 18.7294 16.2811 19.0868V28.522C16.2811 28.8794 15.989 29.1718 15.6321 29.1718Z" fill="#FE724C"/>
</g>
<defs>
<clipPath id="clip0_275_1110">
<rect width="19" height="37" fill="white" transform="translate(0 0.723389)"/>
</clipPath>
</defs>
</svg>
