<svg width="30" height="34" viewBox="0 0 30 34" fill="none" xmlns="http://www.w3.org/2000/svg">
<g clip-path="url(#clip0_275_601)">
<path d="M19.0259 29.6903H9.93542C7.28135 29.6903 5.12115 27.4944 5.12115 24.7965V10.8271C5.12115 10.4332 5.43635 10.1128 5.82382 10.1128H23.1375C23.525 10.1128 23.8402 10.4332 23.8402 10.8271V24.7965C23.8402 27.4944 21.68 29.6903 19.0259 29.6903ZM6.52649 11.5414V24.7965C6.52649 26.7067 8.05629 28.2618 9.93542 28.2618H19.0259C20.905 28.2618 22.4348 26.7067 22.4348 24.7965V11.5414H6.52649Z" fill="#FE724C"/>
<path d="M23.5711 33.8721H5.49859C2.84452 33.8721 0.684326 31.6762 0.684326 28.9782C0.684326 28.5843 0.999522 28.2639 1.38699 28.2639H27.6827C28.0702 28.2639 28.3854 28.5843 28.3854 28.9782C28.3854 31.6762 26.2252 33.8721 23.5711 33.8721ZM2.16193 29.6904C2.48716 31.2598 3.86037 32.4415 5.49859 32.4415H23.5711C25.2094 32.4415 26.5826 31.2598 26.9078 29.6904H2.16193Z" fill="#FE724C"/>
<path d="M24.599 22.321H23.1375C22.75 22.321 22.4348 22.0005 22.4348 21.6067V12.6965C22.4348 12.3026 22.75 11.9822 23.1375 11.9822H24.599C27.4037 11.9822 29.6843 14.3005 29.6843 17.1516C29.6843 20.0026 27.4037 22.321 24.599 22.321ZM23.8402 20.8924H24.599C26.6287 20.8924 28.279 19.2148 28.279 17.1516C28.279 15.0883 26.6287 13.4107 24.599 13.4107H23.8402V20.8924Z" fill="#FE724C"/>
<path d="M11.668 8.24146C11.2805 8.24146 10.9653 7.92106 10.9653 7.52718V4.55779C10.9653 4.16391 11.2805 3.84351 11.668 3.84351C12.0555 3.84351 12.3707 4.16391 12.3707 4.55779V7.52718C12.3707 7.92106 12.0555 8.24146 11.668 8.24146Z" fill="#FE724C"/>
<path d="M14.5349 8.24146C14.1474 8.24146 13.8322 7.92105 13.8322 7.52717V1.58636C13.8322 1.19248 14.1474 0.87207 14.5349 0.87207C14.9223 0.87207 15.2375 1.19248 15.2375 1.58636V7.52717C15.2375 7.92105 14.9223 8.24146 14.5349 8.24146Z" fill="#FE724C"/>
<path d="M17.0785 8.24146C16.691 8.24146 16.3758 7.92106 16.3758 7.52718V4.55779C16.3758 4.16391 16.691 3.84351 17.0785 3.84351C17.466 3.84351 17.7812 4.16391 17.7812 4.55779V7.52718C17.7812 7.92106 17.466 8.24146 17.0785 8.24146Z" fill="#FE724C"/>
<path d="M17.0785 16.1618C16.691 16.1618 16.3758 15.8414 16.3758 15.4475V10.8271C16.3758 10.4332 16.691 10.1128 17.0785 10.1128C17.466 10.1128 17.7812 10.4332 17.7812 10.8271V15.4475C17.7812 15.8414 17.466 16.1618 17.0785 16.1618Z" fill="#FE724C"/>
<path d="M19.7426 22.719H14.4124C14.0249 22.719 13.7097 22.3985 13.7097 22.0047V17.1843C13.7097 16.9945 13.784 16.8128 13.9165 16.6802L15.627 14.9414C15.7595 14.8067 15.9382 14.7312 16.1229 14.7312H18.0301C18.2168 14.7312 18.3955 14.8067 18.526 14.9414L20.2365 16.6802C20.369 16.8149 20.4433 16.9965 20.4433 17.1843V22.0047C20.4433 22.3985 20.1281 22.719 19.7406 22.719H19.7426ZM15.1151 21.2904H19.04V17.4802L17.741 16.1598H16.416L15.1171 17.4802V21.2904H15.1151Z" fill="#FE724C"/>
<path d="M8.47588 15.4699C8.08841 15.4699 7.77322 15.1495 7.77322 14.7557V13.5597C7.77322 13.1659 8.08841 12.8455 8.47588 12.8455C8.86335 12.8455 9.17855 13.1659 9.17855 13.5597V14.7557C9.17855 15.1495 8.86335 15.4699 8.47588 15.4699Z" fill="#FE724C"/>
<path d="M8.47588 24.0536C8.08841 24.0536 7.77322 23.7332 7.77322 23.3393V17.7761C7.77322 17.3822 8.08841 17.0618 8.47588 17.0618C8.86335 17.0618 9.17855 17.3822 9.17855 17.7761V23.3393C9.17855 23.7332 8.86335 24.0536 8.47588 24.0536Z" fill="#FE724C"/>
</g>
<defs>
<clipPath id="clip0_275_601">
<rect width="29" height="33" fill="white" transform="translate(0.684326 0.87207)"/>
</clipPath>
</defs>
</svg>
