<svg width="44" height="42" viewBox="0 0 44 42" fill="none" xmlns="http://www.w3.org/2000/svg">
<g clip-path="url(#clip0_275_596)">
<path d="M10.6986 17.5497C10.9308 17.3803 11.1541 17.0928 11.4131 17.0594C11.8307 17.0037 12.2683 17.1151 12.6992 17.1575C12.5965 17.5787 12.6233 18.1136 12.3688 18.4033C11.393 19.5155 10.1784 20.4404 9.32318 21.6283C5.13437 27.4454 6.76434 35.763 12.7975 39.5898C13.2641 39.8862 13.8916 40.0645 14.4453 40.069C19.1678 40.1069 23.8924 40.1069 28.6149 40.069C29.1664 40.0645 29.7916 39.8706 30.256 39.572C37.3252 35.032 38.0263 24.8957 31.685 19.2324C31.3524 18.936 30.9214 18.7131 30.687 18.3565C30.4838 18.049 30.4972 17.5988 30.4146 17.2132C30.8433 17.1597 31.3792 16.9168 31.6761 17.0884C32.3661 17.4895 32.9399 18.0913 33.6187 18.6596C35.1147 16.3306 37.3832 15.2764 39.9287 14.6323C40.6186 14.4585 41.0518 14.581 41.4091 15.2029C41.9449 16.1345 42.5478 17.026 43.0971 17.9509C43.6352 18.858 43.4655 19.2725 42.4719 19.5846C40.0627 20.3423 39.4732 21.1915 39.7858 23.6632C39.9756 25.1676 40.1922 26.6764 40.5427 28.1496C41.1389 30.6547 39.8483 33.726 36.9679 35.451C36.3048 35.8477 35.7042 36.4495 35.2554 37.0847C33.9648 38.9033 32.4085 40.4122 30.4704 41.5065C30.0752 41.7294 29.5683 41.8564 29.1128 41.8586C24.0554 41.8832 18.9958 41.8876 13.9385 41.8542C13.4182 41.8497 12.8377 41.6737 12.3866 41.404C9.65364 39.777 7.72446 37.4502 6.40263 34.5595C5.67025 32.957 4.77935 31.4237 3.89961 29.8947C3.32801 28.9007 2.64476 27.9691 2.01063 27.0085C0.119419 24.1424 0.273485 20.7747 2.36342 18.4858C4.00009 16.6939 7.19305 15.3945 10.7008 17.552L10.6986 17.5497ZM9.37677 18.8268C7.50118 17.786 5.56308 17.9509 4.07601 19.1945C2.5934 20.4337 1.86773 22.7316 2.65146 24.5257C3.27219 25.9476 4.21221 27.2314 5.00933 28.5753C5.4425 24.7976 6.809 21.5927 9.37677 18.8268ZM41.1791 18.1025C40.9111 17.6612 40.6812 17.1931 40.3619 16.7964C40.2145 16.6137 39.8528 16.4287 39.6585 16.4844C37.9593 16.9725 36.3941 17.6857 35.3112 19.1901C34.8847 19.7807 34.8668 20.2175 35.2933 20.8639C37.2403 23.808 38.1045 27.0397 37.6199 30.5745C37.5105 31.3746 37.3632 32.1681 37.218 33.0596C38.7341 31.6087 39.2052 30.1845 38.8502 28.2633C38.6426 27.1356 38.3858 26.0167 38.2072 24.8845C37.6512 21.323 38.1179 19.6492 41.1768 18.1002L41.1791 18.1025Z" fill="#FE724C"/>
<path d="M13.5812 14.3872C14.3359 11.8175 16.3544 10.7878 18.5828 10.0456C17.9821 7.66534 18.2791 6.45067 19.6523 5.57255C20.7799 4.85043 22.2245 4.92621 23.294 5.75976C24.5176 6.71589 24.7633 8.04422 24.0956 9.903C25.1384 10.4624 26.2503 10.9104 27.177 11.6035C27.858 12.1139 28.4296 12.8851 28.8002 13.6584C29.086 14.2513 29.3718 14.4274 29.9546 14.3828C30.2851 14.356 30.6669 14.3025 30.9415 14.4363C31.2229 14.5744 31.5622 14.9132 31.5801 15.1829C31.6002 15.4615 31.3278 15.8783 31.0666 16.0298C30.7741 16.197 30.3498 16.1591 29.9836 16.1591C24.2274 16.1658 18.4689 16.1635 12.7126 16.1591C12.4157 16.1591 12.0495 16.2482 11.8396 16.1078C11.5136 15.8916 11.0849 15.5105 11.0916 15.2074C11.0983 14.9266 11.5806 14.5076 11.9222 14.4207C12.4402 14.2869 13.0208 14.385 13.5834 14.385L13.5812 14.3872ZM27.2663 14.3293C26.6679 12.0537 23.0931 11.0463 19.3709 11.6035C17.0689 11.9468 15.651 13.0366 15.6019 14.3293H27.264H27.2663ZM21.2599 9.64223C22.2067 9.61103 22.6912 9.11179 22.785 8.27601C22.8743 7.48481 22.1464 6.7783 21.3202 6.82064C20.4494 6.86299 19.9448 7.33994 19.9403 8.22252C19.9359 9.11625 20.4784 9.53748 21.2599 9.64223Z" fill="#FE724C"/>
<path d="M42.262 12.3256C41.8065 11.1733 41.4582 9.96309 40.871 8.88215C39.7769 6.86959 38.7609 4.87264 39.1494 2.47896C39.1963 2.187 39.1718 1.82148 39.3392 1.62981C39.6139 1.31779 40.0202 1.11943 40.3686 0.874268C40.5651 1.22418 40.9938 1.63427 40.9223 1.91286C40.3127 4.26196 41.293 6.1876 42.4138 8.10209C43.211 9.46162 43.7848 10.8947 43.6687 12.5195C43.624 13.1413 43.5571 13.7542 42.7354 13.7653C42.1705 13.772 41.9717 13.3686 42.262 12.33V12.3256Z" fill="#FE724C"/>
<path d="M9.85905 28.7692C10.2275 25.6958 11.2747 22.6937 13.3557 20.1128C13.7397 19.6358 14.2577 19.2035 14.807 18.9449C15.075 18.8179 15.6801 19.0296 15.8966 19.2859C16.044 19.462 15.9123 20.1373 15.6868 20.3223C12.8756 22.5978 12.0562 25.7894 11.5404 29.1236C11.4466 29.7231 11.6342 30.53 10.6718 30.4854C9.64024 30.4386 9.91934 29.5939 9.85905 28.7692Z" fill="#FE724C"/>
</g>
<defs>
<clipPath id="clip0_275_596">
<rect width="43" height="41" fill="white" transform="translate(0.684326 0.87207)"/>
</clipPath>
</defs>
</svg>
