<svg width="21" height="38" viewBox="0 0 21 38" fill="none" xmlns="http://www.w3.org/2000/svg">
<g clip-path="url(#clip0_275_932)">
<path d="M10.5036 35.3043C10.1002 35.3043 9.77014 34.9801 9.77014 34.5839V27.9129C9.77014 27.5167 10.1002 27.1925 10.5036 27.1925C10.9071 27.1925 11.2371 27.5167 11.2371 27.9129V34.5839C11.2371 34.9801 10.9071 35.3043 10.5036 35.3043Z" fill="#FE724C"/>
<path d="M10.5036 37.7753C7.75303 37.7753 3.10266 37.2206 3.10266 35.1314C3.10266 33.4817 6.01464 32.8693 7.75303 32.6532C8.15645 32.6028 8.5232 32.8837 8.57454 33.2799C8.62589 33.6762 8.33982 34.0364 7.9364 34.0868C5.77992 34.3606 4.77503 34.8937 4.58432 35.1386C4.89973 35.578 7.08555 36.3345 10.5036 36.3345C13.9217 36.3345 16.1076 35.578 16.423 35.1386C16.2322 34.8937 15.242 34.3678 13.1076 34.094C13.0929 34.094 13.0855 34.094 13.0709 34.094C12.7041 34.0508 12.4327 33.7338 12.4327 33.3808C12.4327 33.352 12.4327 33.3232 12.4327 33.2872C12.4841 32.8909 12.8508 32.6172 13.2543 32.6604C14.9926 32.8765 17.9046 33.4889 17.9046 35.1386C17.9046 37.2206 13.2543 37.7825 10.5036 37.7825V37.7753Z" fill="#FE724C"/>
<path d="M10.5036 6.05582C7.75303 6.05582 3.10266 5.50111 3.10266 3.41194C3.10266 3.01571 3.43273 2.69153 3.83616 2.69153C4.23958 2.69153 4.55498 3.0013 4.56965 3.38312C4.80437 3.82257 7.00486 4.61501 10.5036 4.61501C14.0024 4.61501 16.1076 3.85859 16.423 3.41914C16.2322 3.1742 15.242 2.64831 13.1076 2.37455C13.0929 2.37455 13.0855 2.37455 13.0709 2.37455C12.7041 2.32412 12.4327 2.01435 12.4327 1.66135C12.4327 1.63254 12.4327 1.60372 12.4327 1.5677C12.4841 1.17148 12.8508 0.897722 13.2543 0.940947C14.9926 1.15707 17.9046 1.76941 17.9046 3.41914C17.9046 5.50111 13.2543 6.06303 10.5036 6.06303V6.05582Z" fill="#FE724C"/>
<path d="M4.61374 15.6804C0.931592 15.6804 0.38147 14.1532 0.38147 13.2383C0.38147 12.3233 0.931592 10.7961 4.61374 10.7961C7.35702 10.7961 10.7018 12.5251 10.8411 12.5971C11.0832 12.7196 11.2299 12.9645 11.2299 13.2311C11.2299 13.4976 11.0832 13.7425 10.8411 13.865C10.7018 13.937 7.35702 15.666 4.61374 15.666V15.6804ZM4.61374 12.2441C3.96093 12.2441 1.84846 12.3161 1.84846 13.2455C1.84846 14.1748 3.96827 14.2468 4.61374 14.2468C5.98538 14.2468 7.61374 13.7065 8.74333 13.2455C7.60641 12.7844 5.98538 12.2441 4.61374 12.2441Z" fill="#FE724C"/>
<path d="M10.5037 13.9587C10.2396 13.9587 9.9902 13.8218 9.85817 13.5768C9.66747 13.2238 9.80683 12.7916 10.1589 12.6043C10.2983 12.5323 13.643 10.8033 16.3863 10.8033C20.0684 10.8033 20.6186 12.3305 20.6186 13.2455C20.6186 13.6417 20.2885 13.9659 19.8851 13.9659C19.4816 13.9659 19.1516 13.6417 19.1516 13.2455C19.1516 12.3161 17.0318 12.2441 16.3863 12.2441C14.0098 12.2441 10.8777 13.865 10.8484 13.8794C10.7384 13.937 10.621 13.9659 10.5037 13.9659V13.9587Z" fill="#FE724C"/>
<path d="M10.5037 26.1984C7.81178 26.1984 5.12719 25.1898 3.08073 23.1799C0.33012 20.4784 -0.67477 16.5305 0.46215 12.8781L3.19076 3.22466C3.30078 2.84284 3.7042 2.61952 4.09296 2.72037C4.48171 2.82843 4.70909 3.22466 4.6064 3.60647L1.87046 13.2743C0.887577 16.4369 1.7531 19.8372 4.11496 22.1569C5.82401 23.8354 8.09051 24.7576 10.5037 24.7576C12.9169 24.7576 15.1834 23.8354 16.8925 22.1569C19.2543 19.8372 20.1199 16.4441 19.1443 13.2959V13.2743H19.137L16.401 3.59927C16.291 3.21745 16.5184 2.82123 16.9145 2.71317C17.3032 2.60511 17.7066 2.82843 17.8167 3.21745L20.5526 12.8781C21.6822 16.5305 20.6773 20.4784 17.934 23.1799C15.8876 25.1898 13.1956 26.1984 10.511 26.1984H10.5037Z" fill="#FE724C"/>
<path d="M3.82883 4.16117C3.42541 4.16117 3.09534 3.81538 3.09534 3.41915C3.10267 1.32998 7.75304 0.775269 10.5036 0.775269C10.9071 0.775269 11.2371 1.09945 11.2371 1.49567C11.2371 1.8919 10.9071 2.21608 10.5036 2.21608C6.9682 2.21608 4.76037 3.02293 4.56233 3.45518C4.56233 3.8514 4.23959 4.15397 3.82883 4.15397V4.16117Z" fill="#FE724C"/>
</g>
<defs>
<clipPath id="clip0_275_932">
<rect width="21" height="37" fill="white" transform="translate(0 0.775269)"/>
</clipPath>
</defs>
</svg>
