<svg width="19" height="38" viewBox="0 0 19 38" fill="none" xmlns="http://www.w3.org/2000/svg">
<g clip-path="url(#clip0_275_978)">
<path d="M12.3747 20.1135C12.0827 20.1135 11.8231 19.9186 11.7452 19.6262L10.2528 13.7324C10.1879 13.4855 10.0646 13.2581 9.88937 13.0761L6.35283 9.70363C6.26198 9.61915 6.20358 9.50869 6.17113 9.39172L5.04203 4.95354C4.95119 4.60264 5.16533 4.25175 5.50925 4.16078C5.85966 4.0698 6.21007 4.28424 6.30091 4.62864L7.38459 8.89137L10.8043 12.1534C11.1547 12.5173 11.3948 12.9462 11.5116 13.414L13.0041 19.3078C13.095 19.6587 12.8808 20.0096 12.5369 20.1005C12.485 20.1135 12.4266 20.12 12.3747 20.12V20.1135Z" fill="#FE724C"/>
<path d="M3.80262 19.7951C3.51061 19.7951 3.25104 19.6002 3.17318 19.3078L2.27119 15.7663C2.15439 15.2984 2.16088 14.8111 2.28417 14.3497L3.73772 9.82058L2.65405 5.55784C2.5632 5.20695 2.77734 4.85605 3.12126 4.76508C3.47167 4.6806 3.82208 4.88854 3.91293 5.23294L5.04203 9.67112C5.07447 9.78809 5.06798 9.91155 5.02905 10.0285L3.52359 14.7071C3.46518 14.9281 3.45869 15.188 3.52359 15.4349L4.42557 18.9764C4.51641 19.3273 4.30227 19.6781 3.95835 19.7691C3.90644 19.7821 3.84804 19.7886 3.79613 19.7886L3.80262 19.7951Z" fill="#FE724C"/>
<path d="M2.94605 4.6806C2.65405 4.6806 2.39448 4.48565 2.31661 4.19324L1.81047 2.19184C1.71962 1.84094 1.93376 1.49004 2.27768 1.39907L4.65917 0.794751C4.82788 0.749264 5.00309 0.775256 5.15234 0.866229C5.30159 0.957202 5.40541 1.10016 5.45083 1.26261L5.95698 3.26402C6.00241 3.43297 5.97645 3.60841 5.8856 3.75787C5.79476 3.90733 5.652 4.01129 5.48977 4.05678L3.10828 4.6611C3.05637 4.6741 2.99797 4.6806 2.94605 4.6806V4.6806ZM3.22508 2.49724L3.41327 3.23802L4.53588 2.95211L4.34769 2.21133L3.22508 2.49724V2.49724Z" fill="#FE724C"/>
<path d="M16.5666 36.3717C16.5666 36.3717 16.5211 36.3717 16.5017 36.3717C16.1448 36.3327 15.8852 36.0208 15.9177 35.6634L17.7086 17.7417C17.7476 17.3844 18.059 17.1244 18.4159 17.1569C18.7728 17.1959 19.0324 17.5078 19 17.8652L17.209 35.7869C17.1765 36.1248 16.891 36.3717 16.5666 36.3717V36.3717Z" fill="#FE724C"/>
<path d="M2.43994 36.3717C2.109 36.3717 1.82997 36.1247 1.79753 35.7868L5.25759e-05 17.8587C-0.0323928 17.5013 0.22717 17.1829 0.584069 17.1504C0.940968 17.1179 1.25893 17.3778 1.29138 17.7352L3.08236 35.6569C3.11481 36.0143 2.85524 36.3327 2.49834 36.3652C2.47888 36.3652 2.45292 36.3652 2.43345 36.3652L2.43994 36.3717Z" fill="#FE724C"/>
<path d="M9.5 20.2045C7.91667 20.2045 0 20.094 0 17.7937C0 17.2803 0.356899 16.8515 1.0707 16.5201C1.39515 16.3706 1.78449 16.5071 1.93374 16.832C2.08299 17.1569 1.94672 17.5468 1.62227 17.6962C1.5444 17.7352 1.47951 17.7677 1.4276 17.8002C2.14788 18.2356 4.89276 18.9049 9.5 18.9049C14.1072 18.9049 16.8586 18.2356 17.5789 17.8002C17.1766 17.5598 16.002 17.1309 13.4454 16.871C13.0885 16.832 12.8289 16.5136 12.8678 16.1562C12.9068 15.7988 13.2182 15.5389 13.5816 15.5778C19.013 16.1302 19.013 17.3843 19.013 17.7937C19.013 20.0875 11.0963 20.2045 9.51298 20.2045H9.5Z" fill="#FE724C"/>
<path d="M9.50005 37.7753C7.6896 37.7753 1.78455 37.6258 1.78455 35.7219C1.78455 35.3645 2.07655 35.0721 2.43345 35.0721C2.73844 35.0721 2.998 35.2865 3.06289 35.5724C3.47819 35.8973 5.71043 36.4757 9.49356 36.4757C13.2767 36.4757 15.5154 35.8973 15.9242 35.5724C15.9891 35.2865 16.2487 35.0721 16.5537 35.0721C16.9106 35.0721 17.2026 35.3645 17.2026 35.7219C17.2026 37.6258 11.2975 37.7753 9.48707 37.7753H9.50005Z" fill="#FE724C"/>
<path d="M7.02117 23.1156C6.98873 23.1156 6.94979 23.1156 6.91735 23.1091C2.77732 22.4463 0 20.3085 0 17.7937C0 17.4363 0.292008 17.1439 0.648907 17.1439C1.00581 17.1439 1.29781 17.4363 1.29781 17.7937C1.29781 19.5872 3.74419 21.2832 7.125 21.8225C7.4819 21.881 7.72199 22.2124 7.66359 22.5698C7.61168 22.8882 7.33914 23.1156 7.02117 23.1156Z" fill="#FE724C"/>
<path d="M15.6321 29.2238H8.80565C8.44875 29.2238 8.15674 28.9314 8.15674 28.574V19.5482C8.15674 19.1908 8.44875 18.8984 8.80565 18.8984C9.16254 18.8984 9.45455 19.1908 9.45455 19.5482V27.9242H14.9832V19.1388C14.9832 18.7814 15.2752 18.489 15.6321 18.489C15.989 18.489 16.2811 18.7814 16.2811 19.1388V28.574C16.2811 28.9314 15.989 29.2238 15.6321 29.2238Z" fill="#FE724C"/>
</g>
<defs>
<clipPath id="clip0_275_978">
<rect width="19" height="37" fill="white" transform="translate(0 0.775269)"/>
</clipPath>
</defs>
</svg>
