<svg width="13" height="21" viewBox="0 0 13 21" fill="none" xmlns="http://www.w3.org/2000/svg">
<path d="M11.3747 20.0616C11.0827 20.0616 10.8231 19.8666 10.7452 19.5742L9.25276 13.6805C9.18787 13.4336 9.06457 13.2061 8.88937 13.0242L5.35283 9.65169C5.26198 9.56721 5.20358 9.45674 5.17113 9.33978L4.04203 4.9016C3.95119 4.5507 4.16533 4.19981 4.50925 4.10883C4.85966 4.01786 5.21007 4.2323 5.30091 4.5767L6.38459 8.83943L9.80433 12.1015C10.1547 12.4654 10.3948 12.8942 10.5116 13.3621L12.0041 19.2558C12.095 19.6067 11.8808 19.9576 11.5369 20.0486C11.485 20.0616 11.4266 20.0681 11.3747 20.0681V20.0616Z" fill="#FE724C"/>
<path d="M2.80262 19.7432C2.51061 19.7432 2.25104 19.5482 2.17318 19.2558L1.27119 15.7144C1.15439 15.2465 1.16088 14.7592 1.28417 14.2978L2.73772 9.76864L1.65405 5.5059C1.5632 5.15501 1.77734 4.80411 2.12126 4.71314C2.47167 4.62866 2.82208 4.8366 2.91293 5.181L4.04203 9.61918C4.07447 9.73615 4.06798 9.85961 4.02905 9.97657L2.52359 14.6552C2.46518 14.8761 2.45869 15.136 2.52359 15.383L3.42557 18.9244C3.51641 19.2753 3.30227 19.6262 2.95835 19.7172C2.90644 19.7302 2.84804 19.7367 2.79613 19.7367L2.80262 19.7432Z" fill="#FE724C"/>
<path d="M1.94605 4.62872C1.65405 4.62872 1.39448 4.43377 1.31661 4.14136L0.810466 2.13996C0.719619 1.78906 0.933758 1.43816 1.27768 1.34719L3.65917 0.742871C3.82788 0.697384 4.00309 0.723377 4.15234 0.814349C4.30159 0.905322 4.40541 1.04828 4.45083 1.21073L4.95698 3.21214C5.00241 3.38109 4.97645 3.55653 4.8856 3.70599C4.79476 3.85545 4.652 3.95941 4.48977 4.0049L2.10828 4.60922C2.05637 4.62222 1.99797 4.62872 1.94605 4.62872V4.62872ZM2.22508 2.44536L2.41327 3.18614L3.53588 2.90023L3.34769 2.15945L2.22508 2.44536V2.44536Z" fill="#FE724C"/>
</svg>
