<svg width="69" height="47" viewBox="0 0 69 47" fill="none" xmlns="http://www.w3.org/2000/svg">
<path d="M0.502057 28.5559C0.849731 28.0558 1.21386 27.5661 1.53685 27.0515C1.64383 26.882 1.6932 26.6485 1.69526 26.4439C1.74463 23.6272 3.2279 22.164 6.05249 22.164C7.77851 22.164 9.50454 22.164 11.2306 22.164C13.977 22.164 15.4088 23.5218 15.5549 26.2641C15.559 26.3282 15.5775 26.3922 15.5981 26.51H31.5355C31.5808 25.8384 31.552 25.1668 31.6795 24.5241C32.3934 20.9055 36.2075 19.0022 39.532 20.5542C39.8138 20.6864 40.2088 20.7092 40.5133 20.6307C42.8174 20.0272 45.2408 20.92 46.5698 22.9039C47.0656 23.6416 47.0471 24.2348 46.5184 24.6047C45.9753 24.9849 45.4589 24.8093 44.9405 24.0488C44.1937 22.9555 43.1466 22.4575 41.8114 22.4182C42.0624 23.1167 42.3689 23.7553 42.5109 24.4269C42.6508 25.0882 42.6261 25.7867 42.6796 26.5638C42.8956 26.5638 43.1507 26.5638 43.4058 26.5638C50.6864 26.5638 57.9669 26.5596 65.2496 26.5658C67.4858 26.5658 68.9814 28.4898 68.3642 30.5419C67.9898 31.7881 66.8624 32.6891 65.552 32.6974C62.5649 32.718 59.5778 32.7098 56.5886 32.7036C55.9097 32.7036 55.49 32.3088 55.4859 31.7281C55.4818 31.1454 55.8953 30.7444 56.5742 30.7196C57.2366 30.6969 57.899 30.7155 58.6108 30.7155V28.6035H53.2209C52.7847 33.7678 50.133 37.6613 46.2077 40.7818C42.2311 43.9416 37.6311 45.7064 32.6649 46.5062C26.2669 47.5374 20.0109 46.9732 13.9687 44.5367C13.0286 44.1565 12.1193 43.6894 11.212 43.2327C10.49 42.869 10.276 42.3524 10.5578 41.7923C10.852 41.2096 11.3951 41.1104 12.1522 41.4865C21.1465 45.9503 30.3073 46.1735 39.5546 42.4144C43.4613 40.8252 46.7611 38.3556 49.1002 34.7474C50.1247 33.1665 50.8263 31.4491 51.1101 29.5748C51.2439 28.6944 51.1204 28.558 50.2276 28.558C39.03 28.558 27.8325 28.558 16.6329 28.558C12.251 28.558 7.86903 28.558 3.48711 28.558C2.52432 28.558 2.405 28.713 2.57164 29.6636C3.22996 33.4165 5.28514 36.3097 8.09738 38.7359C8.23111 38.8516 8.37717 38.957 8.50266 39.0789C8.94908 39.5129 9.00257 40.0853 8.64255 40.5049C8.28048 40.9264 7.66742 41.0153 7.22717 40.5751C5.93111 39.2773 4.57951 38.0126 3.44185 36.5804C1.9195 34.6627 1.0102 32.4163 0.611091 29.9798C0.598747 29.8992 0.53703 29.8269 0.5 29.7504C0.5 29.3495 0.5 28.9507 0.5 28.5497L0.502057 28.5559ZM13.5244 26.541C13.656 24.9374 12.9586 24.1686 11.4404 24.1645C9.49837 24.1604 7.55633 24.15 5.6143 24.1686C4.26475 24.181 3.50768 25.1688 3.78541 26.5658C6.86304 26.5658 9.9489 26.5658 13.0348 26.5658C13.1849 26.5658 13.3372 26.5514 13.5264 26.5431L13.5244 26.541ZM33.6915 26.5638C35.8845 26.5638 38.0446 26.57 40.2047 26.5493C40.3384 26.5493 40.5668 26.3613 40.5894 26.2331C40.7746 25.113 40.5565 24.0963 39.7501 23.2201C39.602 23.3544 39.4744 23.4474 39.3777 23.5652C39.1946 23.7863 39.028 24.0198 38.8593 24.2533C38.4581 24.8093 37.9232 24.9498 37.4357 24.6274C36.9605 24.3133 36.8576 23.7388 37.2053 23.1601C37.4069 22.8233 37.6496 22.5112 37.9212 22.1206C36.6313 21.8396 35.5554 22.1372 34.6563 23.001C33.6483 23.9702 33.3521 25.1585 33.6915 26.5658V26.5638ZM60.6722 30.7072C62.3242 30.7072 63.9082 30.7217 65.4923 30.699C66.0827 30.6907 66.5004 30.2381 66.5045 29.6802C66.5086 29.0891 66.1877 28.6241 65.6322 28.6035C63.9885 28.5415 62.3406 28.5807 60.6701 28.5807V30.7052L60.6722 30.7072Z" fill="#FE724C"/>
<path d="M37.0857 6.23686C40.1716 6.22446 42.6485 8.71055 42.6423 11.8125C42.6341 14.8834 40.1798 17.3529 37.1248 17.3633C34.0678 17.3715 31.5867 14.9123 31.5682 11.8517C31.5497 8.74361 34.0019 6.24926 37.0878 6.23686H37.0857ZM37.0652 15.367C39.0627 15.3814 40.6571 13.8026 40.6612 11.8042C40.6653 9.83063 39.1101 8.2497 37.1433 8.22697C35.1787 8.20424 33.5802 9.76243 33.5535 11.7257C33.5267 13.7406 35.0799 15.3525 37.0652 15.367Z" fill="#FE724C"/>
<path d="M23.4711 11.5088C23.7097 11.7051 24.1232 11.8828 24.2158 12.1639C24.3186 12.4801 24.1808 12.9099 24.0512 13.2571C23.9874 13.4307 23.7159 13.5258 23.5348 13.6539C21.5084 15.0922 21.5023 18.0619 23.5204 19.5043C23.6295 19.5808 23.7406 19.6531 23.8475 19.7317C24.3577 20.1119 24.4914 20.6492 24.1952 21.1204C23.901 21.5895 23.3332 21.7342 22.8004 21.4118C21.0168 20.3289 20.0499 18.7315 20.0334 16.6339C20.017 14.5074 20.9859 12.8913 22.7798 11.7774C22.9423 11.6762 23.144 11.6349 23.469 11.5109L23.4711 11.5088Z" fill="#FE724C"/>
<path d="M26.4601 0C29.2456 0.0702634 31.6896 2.55841 31.7143 5.35035C31.7205 6.07572 31.3584 6.52829 30.7577 6.54276C30.1796 6.55723 29.7949 6.15425 29.7311 5.47021C29.5377 3.40571 28.3281 2.17403 26.3161 1.99011C25.5734 1.92191 25.1784 1.54993 25.199 0.940289C25.2216 0.314119 25.6681 -0.0185991 26.4601 0.00206657V0Z" fill="#FE724C"/>
</svg>
