<svg width="50" height="51" viewBox="0 0 50 51" fill="none" xmlns="http://www.w3.org/2000/svg">
<path d="M0 38.4741C0.423177 37.4931 1.08724 36.8369 2.22786 36.8251C2.56641 36.8212 2.90495 36.8251 3.27995 36.8251C3.44922 35.0418 4.01823 33.4385 5.02083 31.9982C6.02604 30.5528 7.33724 29.4582 8.96094 28.6729C8.45833 28.0284 8.16016 27.3292 8.18359 26.5178C8.21354 25.4284 8.69141 24.5818 9.57682 23.9712C9.8125 23.8082 9.91927 23.679 9.89063 23.3607C9.75912 21.9061 10.5273 20.6133 11.8099 20.0458C13.1003 19.4757 14.5404 19.7784 15.5443 20.8703C15.7669 21.1129 15.9388 21.1208 16.2109 21.0021C16.6419 20.8142 17.0859 20.655 17.5313 20.505C17.9805 20.3537 18.3828 20.5442 18.5195 20.946C18.6484 21.3269 18.4635 21.6987 18.0339 21.8787C17.6302 22.0483 17.224 22.2166 16.806 22.3471C16.4714 22.4514 16.3841 22.6249 16.3815 22.9785C16.3724 24.3104 15.7786 25.3371 14.582 25.9359C13.4271 26.5138 12.2813 26.4017 11.2161 25.6633C10.9909 25.5067 10.7995 25.3019 10.5911 25.1193C9.88411 25.4741 9.52344 26.1942 9.6888 26.9209C9.85938 27.671 10.5156 28.2124 11.3112 28.2202C12.6458 28.2333 13.9805 28.2215 15.3151 28.2241C16.6823 28.2267 17.4922 29.0277 17.5208 30.3975C17.5299 30.8359 17.5091 31.2794 17.5599 31.7138C17.6615 32.5944 18.3919 33.1645 19.3073 33.1162C20.1302 33.0745 20.7786 32.4013 20.8177 31.5547C20.8372 31.1333 20.8164 30.7041 20.8919 30.2932C21.0625 29.3682 21.7943 28.7107 22.7253 28.6977C24.6771 28.669 26.6315 28.6638 28.5833 28.699C29.655 28.7186 30.4479 29.5991 30.4648 30.6806C30.474 31.2507 30.4609 31.8195 30.4688 32.3896C30.4818 33.2911 31.1042 33.9238 31.9557 33.9146C32.7813 33.9055 33.388 33.2741 33.3997 32.3948C33.4089 31.6786 33.3958 30.9624 33.4036 30.2462C33.4167 29.1073 34.2747 28.2489 35.4128 28.2254C35.4779 28.2241 35.543 28.2202 35.6081 28.2254C36.4128 28.2894 37.0872 28.2072 37.6784 27.4675C38.2943 26.6978 39.2734 26.5204 40.2617 26.6039C40.3932 26.0625 40.0912 25.4102 39.4583 25.114C38.0169 24.4409 36.5573 23.8082 35.0911 23.1898C34.9922 23.1481 34.7357 23.3177 34.6406 23.4507C33.1836 25.5054 30.0638 25.2732 29.026 22.9915C28.7669 22.4214 28.7292 21.7496 28.5651 21.0177C27.931 20.9512 27.1771 20.8481 26.4193 20.7985C25.6172 20.7451 25.2578 20.5024 25.2969 19.9623C25.3346 19.447 25.6966 19.2409 26.4883 19.3218C27.3281 19.4079 28.1641 19.5396 29.0052 19.6023C29.1992 19.6166 29.4557 19.477 29.6042 19.3283C31.401 17.5267 34.4128 18.3055 35.0938 20.7581C35.1029 20.7894 35.1172 20.8194 35.125 20.8507C35.263 21.4387 35.6411 21.83 36.2591 22.0248C36.2995 21.8044 36.3268 21.5878 36.3789 21.3765C36.7096 20.0119 37.5234 18.8991 38.3737 17.8398C39.0299 17.0218 40.4154 17.0075 41.0651 17.8228C41.9727 18.9604 42.8646 20.1424 43.1237 21.6426C43.1706 21.9126 43.1693 22.1892 43.194 22.5101C44.9883 22.424 46.2865 23.5042 47.6406 24.4135C48.6393 25.084 48.7643 26.5973 47.832 27.337C46.7448 28.1993 45.6133 29.0538 44.1901 29.3291C43.8425 29.3956 43.4831 29.4048 43.0104 29.4517C43.1055 29.6931 43.1302 29.9788 43.2852 30.1157C45.293 31.8834 46.4271 34.096 46.7292 36.8499C48.1641 36.6647 49.4128 36.9464 49.9987 38.4793V41.4094C49.8854 41.7264 49.7982 42.0564 49.6536 42.3578C48.8594 44.0159 47.5339 44.8704 45.6953 44.8404C45.1706 44.8312 44.8763 45.0034 44.599 45.4326C43.9805 46.3876 43.306 47.306 42.6497 48.2361C41.8112 49.4246 40.6706 50.0064 39.2044 50.0051C29.7331 49.9973 20.2617 49.996 10.7904 50.0051C9.32292 50.0064 8.1862 49.4194 7.34635 48.2348C6.6888 47.306 6.01432 46.3876 5.39844 45.4313C5.11979 45.0008 4.82422 44.8377 4.30208 44.8404C2.34245 44.8508 0.804688 43.7719 0.21224 42.0447C0.141927 41.8281 0.0716146 41.6155 0 41.4041V38.4741ZM43.2161 44.8495C42.2422 44.8495 41.3997 44.8495 40.5573 44.8495C39.2227 44.8495 37.8893 44.856 36.5547 44.8443C35.9596 44.839 35.6276 44.4699 35.7422 43.9572C35.8516 43.4653 36.2266 43.3636 36.6719 43.3636C39.7148 43.3675 42.7578 43.3701 45.8008 43.3636C47.1797 43.361 48.2383 42.4974 48.4675 41.1367C48.5612 40.5809 48.5286 40.003 48.5339 39.4355C48.543 38.4819 48.3594 38.3058 47.3919 38.3058C32.4714 38.3058 17.5495 38.3058 2.62891 38.3058C2.48307 38.3058 2.33594 38.3006 2.1901 38.3123C1.72786 38.3515 1.47917 38.6084 1.46615 39.0703C1.45443 39.4929 1.48438 39.9169 1.45964 40.3396C1.35156 42.2156 2.77734 43.3936 4.46875 43.3858C13.8411 43.3427 23.2135 43.3649 32.5859 43.3649C32.7643 43.3649 32.9466 43.3518 33.1224 43.3766C33.5326 43.434 33.8138 43.7615 33.7799 44.1502C33.7435 44.5625 33.5052 44.7986 33.0911 44.8364C32.8971 44.8534 32.7005 44.8482 32.5065 44.8482C24.1589 44.8482 15.8112 44.8482 7.46484 44.8482H6.79688C7.38021 45.6844 7.92318 46.4097 8.40886 47.1729C9.02865 48.1461 9.88932 48.544 11.0313 48.5414C17.5729 48.5244 24.1133 48.5323 30.6549 48.5323C33.5026 48.5323 36.3503 48.5323 39.1979 48.5323C39.9844 48.5323 40.7044 48.3157 41.1927 47.6856C41.8776 46.8011 42.4974 45.8657 43.2175 44.8469L43.2161 44.8495ZM4.76693 36.8251C5.17708 36.8251 5.54948 36.799 5.91667 36.8329C6.29427 36.8669 6.40104 36.7168 6.46354 36.3568C7.0026 33.2793 9.77214 30.9337 12.901 30.8502C13.9727 30.8215 14.9909 31.0329 16.0273 31.4764C16.0273 31.1072 16.0286 30.8032 16.0273 30.498C16.0234 29.8561 15.8659 29.6944 15.2227 29.6918C13.9701 29.6878 12.7135 29.7557 11.4674 29.6696C10.5143 29.6044 9.72266 29.9096 8.94141 30.3584C8.80078 30.4393 8.66146 30.5241 8.52734 30.6154C6.34245 32.0974 5.10677 34.1521 4.76563 36.8251H4.76693ZM42.1094 36.8251C41.9362 35.6797 41.4557 34.7469 40.6966 33.9564C40.2578 33.4985 39.793 33.0993 39.1081 33.0119C38.7526 32.9662 38.4219 32.7405 38.0768 32.6062C37.8255 32.507 37.5625 32.3335 37.3138 32.3492C36.6081 32.3909 35.9023 32.4927 35.207 32.6192C35.0612 32.6453 34.8854 32.8632 34.8411 33.0249C34.4896 34.3269 33.6953 35.1357 32.3477 35.3849C32.2018 35.4123 32.013 35.5414 31.9583 35.6706C31.8112 36.0228 31.7253 36.4011 31.6042 36.8042H33.2565C33.5859 35.7919 33.9753 35.1983 34.625 34.7C36.6237 33.1723 39.4831 34.0216 40.3581 36.3946C40.4193 36.559 40.5768 36.7912 40.7109 36.8069C41.1576 36.859 41.6133 36.8264 42.1081 36.8264L42.1094 36.8251ZM27.9961 33.2441C26.3464 32.203 24.6302 31.9956 22.849 32.7914C21.1263 33.5611 20.1224 34.9139 19.7604 36.8016H21.3529C22.0443 34.2199 24.9922 33.0093 27.3984 34.7639C27.5938 34.2669 27.7865 33.775 27.9961 33.2441ZM7.8763 36.8264C8.33203 36.8264 8.70573 36.8003 9.07552 36.8342C9.41667 36.8656 9.54167 36.7273 9.64974 36.4168C10.2305 34.7443 11.8372 33.7216 13.5742 33.9929C14.2513 34.0986 14.8945 34.4273 15.569 34.6608C15.7344 34.2382 15.9258 33.749 16.1224 33.2428C14.4089 32.1717 12.6497 31.993 10.8542 32.8436C9.20833 33.6224 8.23698 34.9609 7.8776 36.8277L7.8763 36.8264ZM41.8594 26.7004L41.724 26.8439C41.8294 27.05 41.9023 27.2809 42.0443 27.457C42.5234 28.0532 43.1966 27.9893 43.8372 27.8836C44.9857 27.6945 45.8372 26.9065 46.7734 26.3051C47.0872 26.1029 47.0156 25.7546 46.6445 25.5106C46.0469 25.118 45.4505 24.7201 44.8255 24.3744C43.6693 23.7364 42.1771 23.9112 41.2865 24.7514C41.3659 25.1075 41.5755 25.2302 41.9479 25.2171C42.7279 25.1884 43.5104 25.1975 44.2917 25.2132C44.9128 25.2249 45.2747 25.6776 45.099 26.2007C44.9622 26.6078 44.6289 26.7017 44.2422 26.7004C43.4479 26.6978 42.6523 26.7004 41.8581 26.7004H41.8594ZM13.1406 21.2669C12.138 21.2604 11.3307 22.0548 11.3372 23.0398C11.3438 23.9986 12.1458 24.801 13.1068 24.8101C14.0924 24.8192 14.9089 24.0078 14.9036 23.0254C14.8971 22.0444 14.125 21.2734 13.1406 21.2682V21.2669ZM38.069 29.8718C38.0742 30.8528 38.8633 31.6434 39.8359 31.6408C40.8021 31.6395 41.6042 30.8385 41.6081 29.8679C41.6133 28.8634 40.819 28.0793 39.8073 28.0911C38.8151 28.1028 38.0638 28.8712 38.069 29.8718ZM33.7135 21.6152C33.7188 20.6263 32.9518 19.8345 31.9753 19.8201C30.9818 19.8071 30.168 20.612 30.1706 21.6061C30.1732 22.5858 30.9557 23.362 31.9427 23.3646C32.9388 23.3672 33.707 22.608 33.7122 21.6152H33.7135ZM38.9779 23.2537C38.9779 22.5649 38.9661 21.9635 38.9818 21.3634C38.9948 20.8233 39.3997 20.4515 39.8503 20.5533C40.2773 20.6511 40.4648 20.9447 40.4635 21.3713C40.4635 22.0288 40.4635 22.6876 40.4635 23.4155C40.6862 23.2916 40.8242 23.2159 40.9622 23.1376C41.8125 22.6536 41.9362 22.5897 41.5833 21.6843C41.2005 20.702 40.6068 19.794 40.0378 18.8965C39.8268 18.5651 39.4818 18.7243 39.2826 19.0322C38.8958 19.6323 38.4609 20.2141 38.1628 20.856C37.9375 21.3399 37.8789 21.9048 37.7839 22.441C37.7643 22.5545 37.8789 22.7541 37.9883 22.8154C38.28 22.9811 38.6016 23.0933 38.9792 23.255L38.9779 23.2537ZM45.2005 36.7703C45.168 35.0653 43.9857 32.6714 42.75 31.6695C42.3776 32.0465 42.0156 32.4118 41.6393 32.7914C42.3724 33.5089 43 34.4795 43.3581 35.6184C43.4844 36.0202 43.5091 36.6073 43.7826 36.7716C44.1159 36.9725 44.6628 36.816 45.1185 36.8134C45.1328 36.8134 45.1471 36.799 45.2005 36.7703ZM22.3281 31.3655C24.6107 30.5123 26.7435 30.7067 28.7526 31.9591C29.0247 31.6238 29.1185 30.7067 28.888 30.4249C28.7813 30.2945 28.569 30.1797 28.4036 30.1784C26.5677 30.1614 24.7305 30.1679 22.8932 30.1679C22.5391 30.1679 22.3503 30.3519 22.3307 30.7015C22.319 30.9076 22.3281 31.1137 22.3281 31.3668V31.3655ZM22.9896 36.8264H27.013C26.6771 35.9354 25.918 35.4292 24.9961 35.4305C24.0716 35.4318 23.3125 35.9432 22.9896 36.8264ZM11.1289 36.8264C12.4076 36.8264 13.6406 36.8264 14.875 36.8264C14.9518 36.8264 15.0273 36.8134 15.1094 36.8055C14.8776 36.0045 14.0872 35.4475 13.1875 35.4331C12.2174 35.4188 11.4284 35.9328 11.1302 36.8277L11.1289 36.8264ZM38.8828 36.8029C38.5 35.8376 37.6497 35.3483 36.6003 35.441C35.8099 35.5114 35.0521 36.1193 34.8997 36.8264C36.1224 36.8264 37.3398 36.8264 38.5573 36.8264C38.651 36.8264 38.7461 36.8134 38.8815 36.8042L38.8828 36.8029ZM17.3802 34.1312C17.0221 34.9687 16.6966 35.8297 16.7057 36.7964H18.1966C18.4193 36.0489 18.6289 35.3418 18.8333 34.6543C18.3672 34.4873 17.9023 34.319 17.3789 34.1312H17.3802ZM30.0977 36.8016C30.2565 36.1924 30.3984 35.6471 30.5313 35.1396C30.1237 34.7548 29.7292 34.3804 29.3359 34.0073C28.7956 35.0013 28.4857 36.2733 28.6576 36.8016H30.099H30.0977ZM34.905 31.1059C35.2044 31.0485 35.5026 30.9846 35.8034 30.9363C36.099 30.8893 36.3958 30.858 36.6927 30.8202C36.6328 30.4301 36.5781 30.0701 36.526 29.7205C34.9388 29.5913 34.7461 29.7583 34.9063 31.1046L34.905 31.1059Z" fill="#FE724C"/>
<path d="M50 9.08107C49.5768 10.0569 48.8268 10.3765 47.7813 10.3608C44.6901 10.3165 41.5977 10.3465 38.5052 10.3452C37.612 10.3452 36.7774 10.5774 36.1224 11.184C34.7214 12.4808 33.082 13.0039 31.2018 12.8682C30.9453 12.8499 30.6849 12.8656 30.405 12.8656C30.362 13.1122 30.332 13.3326 30.2852 13.5492C29.944 15.099 28.237 15.8387 26.8919 15.0051C26.6406 14.8498 26.4844 14.8042 26.2188 14.992C25.6263 15.4121 24.944 15.403 24.2188 15.2347C24.2188 15.703 24.2188 16.1401 24.2188 16.5771C24.2188 18.4478 24.2214 20.3199 24.2188 22.1906C24.2162 23.5461 23.2526 24.5623 21.9688 24.5715C20.7149 24.5806 19.7227 23.5943 19.7005 22.2572C19.6745 20.7112 19.6927 19.1653 19.6927 17.6194C19.6927 14.6581 19.6927 11.6967 19.6927 8.73536C19.6927 8.55663 19.6927 8.3766 19.7149 8.19918C19.7617 7.82347 19.9987 7.61604 20.362 7.58212C20.7266 7.5469 21.0039 7.71519 21.1133 8.06872C21.1732 8.26441 21.1784 8.48358 21.1784 8.69231C21.1823 13.1017 21.181 17.5125 21.181 21.9219C21.181 22.085 21.1667 22.2506 21.1927 22.4098C21.2513 22.7659 21.4597 23.0008 21.8255 23.0542C22.2018 23.109 22.5143 22.9864 22.6589 22.6185C22.7331 22.4294 22.7539 22.2076 22.7539 22.0015C22.7591 15.5256 22.7578 9.04845 22.7578 2.5726C22.7578 2.44214 22.7656 2.31038 22.7461 2.18253C22.681 1.76899 22.3242 1.4572 21.9427 1.46763C21.5222 1.47937 21.194 1.80421 21.1862 2.26603C21.1719 3.12834 21.1823 3.99066 21.1784 4.85298C21.1784 4.99778 21.1823 5.15042 21.1432 5.2874C21.0352 5.65659 20.7839 5.87314 20.3893 5.84705C20 5.82227 19.7227 5.59658 19.7175 5.20651C19.7018 4.06893 19.6472 2.92222 19.7617 1.79508C19.8607 0.831007 20.6055 0.309182 21.4844 0H22.461L23.4844 0.521825C23.8334 0.345709 24.1719 0.172202 24.5117 0C24.8373 0 25.1628 0 25.4883 0L26.5599 0.520521C26.8711 0.354841 27.2057 0.177421 27.5391 0C27.8972 0 28.2552 0 28.6133 0C28.6797 0.0378323 28.7422 0.0847966 28.8125 0.112192C29.8125 0.511389 30.3086 1.26021 30.3555 2.32343C30.362 2.48128 30.3698 2.63913 30.3802 2.84134C30.8112 2.84134 31.2162 2.86091 31.6172 2.83743C33.2591 2.74611 34.6849 3.24967 35.9037 4.35333C36.7149 5.0878 37.6836 5.36958 38.7709 5.36436C41.7956 5.34871 44.8216 5.38654 47.8451 5.34349C48.8828 5.32914 49.599 5.67746 49.9987 6.63892V9.07976L50 9.08107ZM30.3789 11.3588C30.9128 11.3588 31.3998 11.338 31.8841 11.3627C32.9974 11.4201 33.9662 11.0836 34.7904 10.3387C35.987 9.25588 37.3854 8.83581 38.9948 8.8619C41.987 8.91017 44.9805 8.86973 47.9727 8.88277C48.3893 8.88408 48.5781 8.76014 48.5417 8.32442C48.5156 8.01785 48.513 7.70475 48.5417 7.39818C48.586 6.93375 48.3828 6.82026 47.9466 6.82287C44.8568 6.83852 41.7656 6.81634 38.6758 6.83722C37.2604 6.84765 35.9896 6.45498 34.9701 5.4896C33.6406 4.232 32.0521 4.24766 30.3985 4.35985V5.67746C30.8294 5.67746 31.2201 5.67094 31.6094 5.67876C32.1537 5.69051 32.5091 5.99838 32.5026 6.43802C32.4961 6.8607 32.1602 7.15031 31.6354 7.16466C31.2201 7.1764 30.8047 7.16727 30.3919 7.16727V8.5188C30.8164 8.5188 31.2057 8.51228 31.5938 8.5201C32.1458 8.53054 32.4987 8.82537 32.5026 9.26501C32.5065 9.69943 32.1524 10.0047 31.6029 10.0204C31.2018 10.0321 30.8008 10.023 30.3789 10.023V11.3575V11.3588ZM28.862 7.69692C28.862 6.02056 28.862 4.3442 28.862 2.66783C28.862 1.85509 28.586 1.44937 28.0534 1.46763C27.5365 1.4859 27.2878 1.87205 27.2865 2.66392C27.2865 5.99969 27.2865 9.33676 27.2865 12.6725C27.2865 12.8513 27.2852 13.0326 27.3151 13.2074C27.3906 13.6366 27.6706 13.8701 28.0964 13.8597C28.4974 13.8505 28.7643 13.6223 28.832 13.2113C28.8607 13.0365 28.8607 12.8552 28.8607 12.6764C28.862 11.017 28.8607 9.35633 28.8607 7.69692H28.862ZM25.7956 7.70084C25.7956 5.9449 25.7969 4.19026 25.7956 2.43432C25.7956 1.82639 25.4935 1.46242 25.0104 1.46763C24.5378 1.47285 24.2214 1.85378 24.2201 2.44736C24.2175 5.92533 24.2175 9.40329 24.2201 12.8813C24.2201 13.4905 24.5182 13.8545 24.9987 13.8662C25.5026 13.8793 25.7943 13.5192 25.7956 12.8682C25.7982 11.1449 25.7956 9.42286 25.7956 7.69953V7.70084Z" fill="#FE724C"/>
<path d="M30.4402 26.818C30.4285 27.2642 30.0249 27.6425 29.5783 27.6281C29.1173 27.6125 28.7723 27.2341 28.7918 26.7619C28.81 26.3105 29.159 25.9779 29.6095 25.9805C30.0626 25.9831 30.4507 26.3744 30.4402 26.818Z" fill="#FE724C"/>
<path d="M19.5325 26.8063C19.5299 27.2733 19.1602 27.6386 18.6992 27.6294C18.2708 27.6203 17.8958 27.2485 17.8841 26.8219C17.8711 26.3745 18.2539 25.9844 18.7083 25.9805C19.1771 25.9766 19.5338 26.334 19.5325 26.8063Z" fill="#FE724C"/>
<path d="M26.4453 23.5383C25.9857 23.533 25.6094 23.1482 25.625 22.6994C25.6393 22.2728 26.0156 21.8997 26.4427 21.8906C26.8932 21.8802 27.276 22.2611 27.276 22.7203C27.276 23.1925 26.9193 23.5435 26.4466 23.5383H26.4453Z" fill="#FE724C"/>
<path d="M35.6288 26.8087C35.1861 26.8087 34.7876 26.4108 34.7915 25.9712C34.7954 25.5237 35.1887 25.148 35.6444 25.1584C36.091 25.1689 36.4335 25.5133 36.44 25.9634C36.4478 26.4291 36.0845 26.8074 35.6288 26.8087Z" fill="#FE724C"/>
</svg>
