<svg width="18" height="52" viewBox="0 0 18 52" fill="none" xmlns="http://www.w3.org/2000/svg">
<path d="M8.45006 5.54C5.98006 5.54 3.31006 4.67 3.31006 2.77C3.31006 0.87 5.97006 0 8.45006 0C10.9301 0 13.5901 0.87 13.5901 2.77C13.5901 4.67 10.9301 5.54 8.45006 5.54ZM5.36006 2.77C5.64006 3.05 6.69006 3.54 8.45006 3.54C10.2101 3.54 11.2701 3.05 11.5401 2.77C11.2601 2.49 10.2001 2 8.45006 2C6.70006 2 5.63006 2.49 5.36006 2.77Z" fill="#FE724C"/>
<path d="M8.55005 48.1399C8.00005 48.1399 7.55005 47.6899 7.55005 47.1399V37.8799C7.55005 37.3299 8.00005 36.8799 8.55005 36.8799C9.10005 36.8799 9.55005 37.3299 9.55005 37.8799V47.1399C9.55005 47.6899 9.10005 48.1399 8.55005 48.1399Z" fill="#FE724C"/>
<path d="M8.55 51.5701C4.43 51.5701 0 50.4201 0 47.9001C0 46.2401 1.96 44.9901 5.39 44.4701C5.95 44.3901 6.45 44.7601 6.53 45.3101C6.61 45.8601 6.24 46.3701 5.69 46.4501C3.05 46.8601 2.05 47.6801 2 47.9101C2.1 48.4001 4.45 49.5701 8.55 49.5701C12.65 49.5701 14.99 48.4001 15.1 47.9001C15.05 47.6701 14.04 46.8501 11.41 46.4401C10.92 46.3601 10.56 45.9401 10.56 45.4501C10.56 45.4001 10.56 45.3501 10.57 45.3001C10.65 44.7501 11.15 44.3801 11.71 44.4601C15.13 44.9901 17.1 46.2401 17.1 47.8901C17.1 50.4101 12.67 51.5601 8.55 51.5601V51.5701Z" fill="#FE724C"/>
<path d="M4.35992 19.75C2.83992 19.75 1.82992 19.41 1.26992 18.7C0.929916 18.27 1.00992 17.64 1.43992 17.3C1.87992 16.96 2.49992 17.04 2.83992 17.47C2.83992 17.47 3.10992 17.75 4.34992 17.75C5.64992 17.75 7.47992 16.93 8.06992 16.62C8.16992 16.56 10.6599 15.26 12.7299 15.26C13.9399 15.26 14.8099 15.47 15.3999 15.91C15.8399 16.24 15.9399 16.86 15.6099 17.31C15.2799 17.75 14.6599 17.85 14.2099 17.52C14.1299 17.46 13.7799 17.26 12.7299 17.26C11.4299 17.26 9.59992 18.08 9.00992 18.39C8.90992 18.45 6.41992 19.75 4.34992 19.75H4.35992Z" fill="#FE724C"/>
<path d="M8.55 35.5001C4.65 35.5001 0 33.5001 0 23.9501C0 19.7601 1.71 11.1001 2.73 6.31006C2.85 5.77006 3.38 5.42006 3.92 5.54006C4.46 5.66006 4.8 6.19006 4.69 6.73006C3.69 11.4401 2 19.9501 2 23.9501C2 30.3801 4.14 33.5001 8.55 33.5001C12.96 33.5001 15.1 30.3801 15.1 23.9501C15.1 18.2201 11.64 3.22006 11.6 3.07006C11.48 2.53006 11.81 1.99006 12.35 1.87006C12.89 1.75006 13.43 2.08006 13.55 2.62006C13.69 3.25006 17.1 18.0001 17.1 23.9501C17.1 33.5001 12.45 35.5001 8.55 35.5001V35.5001Z" fill="#FE724C"/>
<path d="M10.7399 26.1102C9.1699 26.1102 7.8999 24.8302 7.8999 23.2702C7.8999 21.7102 9.1799 20.4302 10.7399 20.4302C12.2999 20.4302 13.5799 21.7102 13.5799 23.2702C13.5799 24.8302 12.2999 26.1102 10.7399 26.1102ZM10.7399 22.4202C10.2799 22.4202 9.8999 22.8002 9.8999 23.2602C9.8999 23.7202 10.2799 24.1002 10.7399 24.1002C11.1999 24.1002 11.5799 23.7202 11.5799 23.2602C11.5799 22.8002 11.1999 22.4202 10.7399 22.4202Z" fill="#FE724C"/>
<path d="M6.60001 31.0902C5.03001 31.0902 3.76001 29.8102 3.76001 28.2502C3.76001 26.6902 5.04001 25.4102 6.60001 25.4102C8.16001 25.4102 9.44001 26.6902 9.44001 28.2502C9.44001 29.8102 8.16001 31.0902 6.60001 31.0902ZM6.60001 27.4002C6.14001 27.4002 5.76001 27.7802 5.76001 28.2402C5.76001 28.7002 6.14001 29.0802 6.60001 29.0802C7.06001 29.0802 7.44001 28.7002 7.44001 28.2402C7.44001 27.7802 7.06001 27.4002 6.60001 27.4002Z" fill="#FE724C"/>
</svg>
