<svg width="60" height="50" viewBox="0 0 60 50" fill="none" xmlns="http://www.w3.org/2000/svg">
<path d="M59.996 25.9276C59.5655 24.9271 58.8093 24.5311 57.7526 24.617C56.3045 24.7347 54.8532 24.8158 53.3424 24.916C53.3424 24.4166 53.3001 23.7835 53.3502 23.16C53.5005 21.2974 52.7099 19.8818 51.3416 18.7652C50.706 18.2466 50.0015 17.8108 49.3017 17.3813C48.7866 17.0664 48.2904 17.2 48.0258 17.6486C47.7534 18.1082 47.9287 18.5997 48.436 18.9608C49.2313 19.5287 50.0594 20.0647 50.7718 20.7296C51.4637 21.3753 51.7988 22.2263 51.4246 23.2141C51.398 23.2825 51.3416 23.3397 51.2696 23.4415C51.1287 23.2666 50.9925 23.1266 50.8908 22.9628C49.9295 21.4262 48.5549 20.6739 46.7686 20.7025C46.0375 20.7152 45.4176 20.4337 44.8039 20.0472C44.1636 19.6448 43.4606 19.3441 42.7968 18.9799C42.5964 18.8701 42.4195 18.7063 42.2473 18.5488C40.9902 17.3941 39.7221 17.2907 38.2958 18.2069C38.1471 18.3023 37.8857 18.3548 37.7369 18.288C36.7209 17.8331 35.6892 17.8076 34.6512 18.1385C33.6587 18.455 32.7131 18.4216 31.7534 17.9874C30.5917 17.4609 29.3941 17.4672 28.234 17.9905C27.2743 18.4232 26.3287 18.4534 25.3362 18.1369C24.2982 17.806 23.2649 17.8378 22.2504 18.2912C22.1033 18.358 21.8418 18.2991 21.6931 18.2037C20.3091 17.3114 19.0786 17.4004 17.8262 18.4709C17.524 18.7302 17.1514 18.9083 16.8023 19.1056C16.4626 19.298 16.0681 19.4125 15.7706 19.6543C14.8297 20.4146 13.7729 20.7757 12.5784 20.7789C11.1882 20.7805 10.1847 21.4994 9.38943 22.5953C9.18278 22.8785 8.96204 23.152 8.72094 23.4654C8.28415 22.7146 8.29981 21.9798 8.75695 21.3944C9.29393 20.7073 9.91546 20.0376 10.6277 19.5509C12.7773 18.0796 15.2336 17.332 17.7275 16.7562C22.6465 15.6205 27.6344 15.2786 32.6708 15.5092C36.7178 15.6937 40.7068 16.2154 44.6035 17.3766C45.1514 17.5404 45.6195 17.2923 45.7745 16.7944C45.9248 16.3125 45.6743 15.7955 45.1045 15.6667C42.7499 15.1322 40.4015 14.5358 38.0219 14.1604C34.6011 13.6196 31.1381 13.5305 27.6814 13.6705C22.4994 13.882 17.3847 14.531 12.5189 16.5113C10.9534 17.1491 9.47554 17.9476 8.24032 19.1485C7.17104 20.1872 6.56047 21.4135 6.64971 22.9612C6.68885 23.6515 6.65597 24.3466 6.65597 24.9017C5.04814 24.8063 3.48259 24.6838 1.9139 24.6329C0.694323 24.5931 0.00547945 25.3375 0.00234834 26.5909C-0.000782779 27.9222 -0.000782779 29.2552 0.00234834 30.5865C0.00547945 31.8113 0.672407 32.4666 1.88102 32.5318C3.182 32.6018 4.48611 32.6797 5.77613 32.8595C6.66693 32.9835 6.65597 33.0631 6.65597 33.9586C6.65597 35.8673 6.70137 37.7776 6.64188 39.6831C6.58865 41.3803 7.28063 42.6687 8.48924 43.7423C9.8638 44.9639 11.4841 45.7354 13.1686 46.3859C13.7088 46.5943 14.2176 46.3573 14.382 45.8833C14.5542 45.3854 14.3178 44.9592 13.787 44.6856C12.5393 44.043 11.2602 43.4465 10.0767 42.6957C8.9182 41.9625 8.3186 40.8729 8.40783 39.3841C8.50177 37.819 8.42818 36.2443 8.42818 34.6743C8.42818 34.4835 8.42818 34.2926 8.42818 33.9299C9.04031 34.4357 9.54286 34.8302 10.0203 35.2533C10.5714 35.74 11.0692 35.7846 11.4528 35.3456C11.8285 34.9145 11.7941 34.4135 11.2367 33.9538C10.4524 33.3048 9.60861 32.7338 8.80078 32.1135C8.64892 31.9974 8.44697 31.8097 8.44384 31.6522C8.41879 29.8087 8.42818 27.9652 8.42818 26.1551C9.51781 26.7929 10.5542 27.4944 11.6657 28.032C14.4336 29.3681 17.3956 30.0632 20.4031 30.561C24.2293 31.1925 28.0868 31.4072 31.9569 31.2752C37.023 31.1019 42.0234 30.4815 46.8203 28.6841C48.4954 28.0574 50.0751 27.2526 51.517 26.0326C51.5389 26.2314 51.5686 26.3746 51.5686 26.5177C51.5718 28.1481 51.5608 29.7785 51.578 31.4088C51.5812 31.7683 51.4669 31.9528 51.1647 32.158C50.324 32.729 49.5052 33.3382 48.7256 33.9936C48.1886 34.4453 48.1776 34.975 48.5831 35.3885C48.9651 35.7782 49.4348 35.7384 49.9326 35.301C50.4273 34.8668 50.9393 34.4517 51.5718 33.922C51.5718 35.0497 51.5718 35.9945 51.5718 36.9378C51.5718 37.8714 51.5358 38.8083 51.5812 39.7404C51.6297 40.7154 51.2555 41.4741 50.5964 42.1263C49.5256 43.184 48.2215 43.8553 46.8626 44.4199C43.9381 45.6367 40.8727 46.2762 37.7542 46.7009C34.6121 47.1287 31.4544 47.2448 28.2888 47.1685C24.9479 47.0858 21.6336 46.7454 18.3632 46.0217C18.2865 46.0042 18.2097 45.993 18.133 45.9787C17.3784 45.8435 16.9682 46.0487 16.843 46.6245C16.7162 47.2051 17.0591 47.5948 17.8183 47.7602C23.2774 48.9516 28.7945 49.214 34.3506 48.8498C38.5698 48.5746 42.717 47.9113 46.7076 46.4352C48.4 45.8085 50.014 45.0196 51.4027 43.8203C52.7099 42.691 53.4332 41.3262 53.3612 39.5113C53.2829 37.547 53.3534 35.5762 53.3346 33.6086C53.3315 33.2189 53.4457 33.0058 53.8246 32.9613C55.0974 32.8149 56.3702 32.5763 57.6461 32.5572C58.6998 32.5413 59.4998 32.2773 59.9992 31.3007V25.9324L59.996 25.9276ZM23.3448 19.7354C23.7863 19.7736 24.3373 19.7275 24.8289 19.8818C26.2363 20.3224 27.5859 20.2651 28.9322 19.6607C29.5569 19.3807 30.227 19.3028 30.8657 19.6002C32.3812 20.3049 33.906 20.3065 35.481 19.8229C35.8677 19.7036 36.3201 19.8054 36.6583 19.8054C36.1823 21.1033 35.7142 22.3154 35.2978 23.5481C35.1788 23.9028 35.135 24.1796 34.6716 24.2289C34.2442 24.2734 33.9358 24.6456 34.0203 25.0719C34.0814 25.3852 34.371 25.6795 34.6215 25.9133C34.7326 26.0183 35.0003 25.996 35.1866 25.9674C35.9553 25.8481 36.7178 25.6859 37.4864 25.5745C38.5495 25.4202 39.5733 25.662 40.6082 25.891C42.2818 26.2617 43.888 25.6143 45.5256 25.4377C45.9545 25.3916 46.1753 24.994 46.144 24.5502C46.1095 24.0475 45.7855 23.7915 45.3127 23.6881C45.1483 23.6515 44.9041 23.5879 44.8571 23.4702C44.6739 23.0041 44.5534 22.5126 44.4454 22.15C45.4598 22.2963 46.4759 22.4076 47.4763 22.6017C47.8974 22.6828 48.3702 22.8466 48.6724 23.1329C49.2031 23.6388 49.6227 24.267 50.169 24.9446C49.2328 25.4679 48.4109 26.0024 47.5295 26.4064C43.6391 28.1879 39.4904 28.8591 35.2868 29.279C34.9236 29.3156 34.7827 29.1709 34.6669 28.8432C34.1362 27.3337 33.4301 25.9245 32.2403 24.8269C31.0943 23.7692 29.6931 23.5831 28.4688 24.3052C27.8896 24.6456 27.6892 25.1451 27.9365 25.6286C28.1823 26.1106 28.7099 26.2378 29.3001 25.8974C29.8481 25.5809 30.3506 25.6222 30.8234 26.0008C31.9021 26.8677 32.4767 28.0654 32.9949 29.4238H27.0332C27.0927 29.2218 27.1256 29.112 27.1569 29.0007C27.3307 28.4042 27.1569 27.9302 26.7013 27.7489C26.1988 27.5485 25.7401 27.7775 25.4896 28.3644C25.3612 28.6666 25.2485 28.9768 25.1373 29.2615C24.8884 29.2615 24.6911 29.2886 24.5001 29.2568C22.097 28.8671 19.6767 28.5585 17.297 28.0511C14.9095 27.5421 12.6066 26.7198 10.5354 25.3471C10.3162 25.2023 10.1158 25.0305 9.89824 24.8651C10.324 24.3164 10.6465 23.774 11.088 23.3684C11.4591 23.028 11.9444 22.7242 12.425 22.6176C13.452 22.3885 14.5088 22.2979 15.5499 22.1516C15.4152 22.5874 15.2508 23.125 15.0896 23.6483C14.2144 23.7485 13.8121 24.0746 13.8371 24.6408C13.8606 25.2103 14.263 25.4791 15.1303 25.5475C15.4982 25.5761 15.8708 25.6206 16.2246 25.7177C17.5365 26.074 18.8407 26.0676 20.1526 25.7177C21.1718 25.4457 22.1925 25.4807 23.2211 25.724C23.7863 25.8592 24.3718 25.934 24.951 25.9769C25.5412 26.0199 25.9452 25.6731 25.9953 25.1689C26.0422 24.6901 25.7307 24.3291 25.1812 24.1668C25.0293 24.1223 24.832 23.9982 24.7835 23.863C24.3013 22.5317 23.8442 21.1908 23.3416 19.7402L23.3448 19.7354ZM37.0575 23.8439C37.4567 22.4029 37.9639 21.1717 38.8626 20.1442C39.733 19.1501 40.5017 19.1644 41.344 20.2031C42.2395 21.3038 42.7467 22.6017 43.1256 23.9935C41.07 24.6345 39.1444 23.2347 37.0559 23.8439H37.0575ZM16.7428 24.1159C17.1154 23.1838 17.3455 22.4188 17.715 21.7332C18.0845 21.0477 18.5322 20.3844 19.0567 19.8165C19.5874 19.2392 20.1917 19.2694 20.7694 19.7927C21.9295 20.8441 22.4696 22.247 22.9362 23.8121C21.5522 23.537 20.3107 23.8424 19.052 24.0921C18.3663 24.2273 17.6352 24.1159 16.7444 24.1159H16.7428ZM58.2003 26.4525V30.6724H56.7209V26.4525H58.2003ZM3.25401 26.4446V30.6644H1.78865V26.4446H3.25401ZM53.3424 31.1162C53.3424 29.8532 53.3362 28.5871 53.3518 27.321C53.3518 27.1985 53.4598 27.0061 53.56 26.9695C53.9671 26.8231 54.3898 26.7261 54.8798 26.5909C54.8798 27.5962 54.8798 28.4853 54.8798 29.3745C54.8798 30.3596 54.4174 30.955 53.4927 31.1607C53.4771 31.1639 53.4567 31.1512 53.3424 31.1178V31.1162ZM5.11546 26.5798C5.60861 26.7229 6.01722 26.8263 6.41488 26.9663C6.51194 27.0013 6.63719 27.1492 6.63719 27.2462C6.65128 28.5442 6.64658 29.8421 6.64658 31.175C6.18787 31.0812 5.80274 31.0271 5.4364 30.9142C5.30803 30.8744 5.12955 30.6962 5.12799 30.577C5.10607 29.2743 5.1139 27.9716 5.1139 26.5798H5.11546Z" fill="#FE724C"/>
<path d="M31.5984 6.45705C31.5906 5.05256 31.3103 4.10774 30.8688 3.17406C30.5479 2.49487 30.371 1.73297 30.2144 0.988574C30.0814 0.355516 29.7902 -0.0198656 29.2563 0.000812148C28.7068 0.0230805 28.3733 0.455724 28.4015 1.12696C28.4407 2.07495 28.6818 2.96251 29.153 3.78485C30.0219 5.30387 29.9859 6.79426 29.1749 8.361C28.7773 9.12767 28.5988 10.0295 28.4281 10.8916C28.2872 11.6058 28.6473 12.0655 29.214 12.1116C29.798 12.1594 30.0908 11.7744 30.2207 11.0571C30.3459 10.3683 30.5322 9.67007 30.8203 9.03701C31.3573 7.86473 31.5937 7.15056 31.5968 6.45546L31.5984 6.45705Z" fill="#FE724C"/>
<path d="M25.6821 5.84156C25.7244 5.01444 25.3987 4.10144 24.9792 3.18526C24.6567 2.48062 24.4672 1.70441 24.2966 0.942511C24.1588 0.33013 23.8895 -0.0166207 23.3729 0.000875846C22.8484 0.0167818 22.5087 0.427156 22.5087 1.06021C22.5087 2.12114 22.8484 3.08346 23.3619 3.9901C23.924 4.98422 24.0805 6.04674 23.7737 7.14585C23.6375 7.63416 23.3118 8.06681 23.16 8.55194C22.9048 9.37428 22.6606 10.2093 22.5275 11.0587C22.4289 11.6822 22.8343 12.099 23.3635 12.1197C23.888 12.1387 24.1541 11.8015 24.295 11.1892C24.4735 10.4082 24.6786 9.61764 24.9995 8.89074C25.4974 7.763 25.6868 7.19516 25.6805 5.84156H25.6821Z" fill="#FE724C"/>
<path d="M37.4834 6.03087C37.4912 5.03674 37.2532 4.10624 36.7726 3.24414C36.364 2.51087 36.0744 1.75057 36.0665 0.885279C36.0618 0.341294 35.6501 -0.0134093 35.1585 0.000906107C34.6513 0.0152215 34.3288 0.368335 34.3131 0.94095C34.2896 1.85077 34.4462 2.73037 34.9127 3.51295C35.9319 5.21966 35.9147 6.86911 34.9393 8.62354C34.5386 9.34568 34.4556 10.273 34.3319 11.124C34.2442 11.7284 34.6294 12.1038 35.1585 12.1181C35.6767 12.1324 35.9757 11.7554 36.0947 11.1812C36.2481 10.4368 36.4219 9.67334 36.7382 8.99097C37.1797 8.03979 37.5053 7.08703 37.4849 6.02928L37.4834 6.03087Z" fill="#FE724C"/>
<path d="M31.4059 21.8063C31.3933 22.3184 31.7691 22.7129 32.2716 22.7161C32.7522 22.7193 33.1311 22.3614 33.1546 21.881C33.1796 21.3768 32.8039 20.9521 32.317 20.9299C31.8286 20.9076 31.4184 21.3021 31.4059 21.8063Z" fill="#FE724C"/>
<path d="M26.1393 22.7097C26.1299 23.1949 26.5463 23.6339 27.0191 23.6386C27.4997 23.6434 27.8974 23.2251 27.8943 22.7193C27.8911 22.2214 27.5451 21.8572 27.0583 21.8397C26.5651 21.8222 26.1487 22.2166 26.1393 22.7097Z" fill="#FE724C"/>
</svg>
