<svg width="134" height="152" viewBox="0 0 134 152" fill="none" xmlns="http://www.w3.org/2000/svg">
<g filter="url(#filter0_d_275_851)">
<path d="M86.3376 81.7441H47.1361C37.0326 81.7441 28.8421 89.3553 28.8421 98.7441C28.8421 108.133 37.0326 115.744 47.1361 115.744H86.3376C96.4411 115.744 104.632 108.133 104.632 98.7441C104.632 89.3553 96.4411 81.7441 86.3376 81.7441Z" fill="white"/>
</g>
<g filter="url(#filter1_d_275_851)">
<path d="M86.3376 21.7441H47.1361C37.0326 21.7441 28.8421 29.3553 28.8421 38.7441C28.8421 48.133 37.0326 55.7441 47.1361 55.7441H86.3376C96.4411 55.7441 104.632 48.133 104.632 38.7441C104.632 29.3553 96.4411 21.7441 86.3376 21.7441Z" fill="white"/>
</g>
<defs>
<filter id="filter0_d_275_851" x="0.440168" y="60.4427" width="132.593" height="90.8039" filterUnits="userSpaceOnUse" color-interpolation-filters="sRGB">
<feFlood flood-opacity="0" result="BackgroundImageFix"/>
<feColorMatrix in="SourceAlpha" type="matrix" values="0 0 0 0 0 0 0 0 0 0 0 0 0 0 0 0 0 0 127 0" result="hardAlpha"/>
<feOffset dy="7.10048"/>
<feGaussianBlur stdDeviation="14.201"/>
<feColorMatrix type="matrix" values="0 0 0 0 0.996078 0 0 0 0 0.447059 0 0 0 0 0.298039 0 0 0 0.2 0"/>
<feBlend mode="normal" in2="BackgroundImageFix" result="effect1_dropShadow_275_851"/>
<feBlend mode="normal" in="SourceGraphic" in2="effect1_dropShadow_275_851" result="shape"/>
</filter>
<filter id="filter1_d_275_851" x="0.440168" y="0.44269" width="132.593" height="90.8039" filterUnits="userSpaceOnUse" color-interpolation-filters="sRGB">
<feFlood flood-opacity="0" result="BackgroundImageFix"/>
<feColorMatrix in="SourceAlpha" type="matrix" values="0 0 0 0 0 0 0 0 0 0 0 0 0 0 0 0 0 0 127 0" result="hardAlpha"/>
<feOffset dy="7.10048"/>
<feGaussianBlur stdDeviation="14.201"/>
<feColorMatrix type="matrix" values="0 0 0 0 0.996078 0 0 0 0 0.447059 0 0 0 0 0.298039 0 0 0 0.2 0"/>
<feBlend mode="normal" in2="BackgroundImageFix" result="effect1_dropShadow_275_851"/>
<feBlend mode="normal" in="SourceGraphic" in2="effect1_dropShadow_275_851" result="shape"/>
</filter>
</defs>
</svg>
