<svg width="52" height="47" viewBox="0 0 52 47" fill="none" xmlns="http://www.w3.org/2000/svg">
<path d="M51.5016 27.5494C51.1985 28.3217 50.7632 28.9724 49.9014 29.1768C49.6158 29.2445 49.3115 29.2595 49.0159 29.2608C47.3235 29.2683 45.6298 29.2645 43.9374 29.2645C43.7565 29.2645 43.5757 29.2645 43.3475 29.2645C43.3687 29.43 43.3836 29.5529 43.3986 29.6758C43.4909 30.3866 43.4061 31.0862 42.8611 31.5739C41.0053 33.2389 39.1569 34.9176 37.2238 36.4886C35.681 37.7423 33.8052 38.3441 31.9083 38.8706C29.9065 39.4261 27.9085 39.984 25.8058 39.8486C24.7818 39.7834 23.7654 39.6179 22.7439 39.5113C21.0091 39.3283 19.2743 39.1878 17.5706 39.737C16.7786 39.9927 16.1176 40.4428 15.6449 40.9744C15.9268 41.5511 16.3184 42.0514 16.3957 42.5967C16.4631 43.0732 16.2573 43.6424 16.0266 44.095C15.7036 44.7281 15.2483 45.2935 14.8442 45.884C14.0074 47.1089 12.8612 47.3359 11.6277 46.4984C8.85275 44.6128 6.08524 42.7171 3.31524 40.824C2.94482 40.5707 2.56568 40.3287 2.21397 40.0517C1.36713 39.3847 1.14139 38.2989 1.69888 37.3712C2.17032 36.5876 2.68291 35.8253 3.23168 35.0957C3.87398 34.2406 4.68465 34.1027 5.95678 34.5428C7.5457 32.859 8.74425 30.8267 10.635 29.267H10.0638C7.70659 29.267 5.3494 29.2232 2.99471 29.2821C1.34967 29.3235 0.375618 28.1011 0.512808 26.7746C0.550224 26.411 0.495348 26.0324 0.572673 25.6801C0.793426 24.6746 1.63029 24.0114 2.69289 23.9663C3.15685 23.9462 3.62329 23.9462 4.086 23.9663C4.38657 23.9788 4.48385 23.8672 4.5063 23.5701C4.68216 21.1403 5.26584 18.8084 6.24987 16.5843C7.90614 12.8381 10.423 9.79529 13.7692 7.45958C16.4207 5.60907 19.3503 4.4268 22.5456 3.92405C22.6105 3.91402 22.6753 3.89772 22.7377 3.87516C22.7838 3.85886 22.8237 3.82877 22.8188 3.83253C22.6728 3.28966 22.502 2.77312 22.3997 2.24154C22.2538 1.47927 22.5581 0.854909 23.2366 0.541475C23.8265 0.269415 24.4862 0.0337128 25.1248 0.0111455C26.1051 -0.023959 27.1216 0.0161605 28.0719 0.243086C29.4862 0.580341 29.9165 1.50309 29.4962 2.89975C29.4052 3.20065 29.2692 3.48775 29.1333 3.83253C29.7219 3.9579 30.3144 4.07199 30.9018 4.21241C36.236 5.49247 40.4839 8.39863 43.6817 12.8682C44.0409 13.3697 44.016 13.826 43.6331 14.1031C43.2527 14.3789 42.8149 14.2598 42.4557 13.7508C40.3255 10.7293 37.5942 8.4375 34.2293 6.92925C30.8893 5.43229 27.4047 4.86561 23.7541 5.29689C18.5259 5.91498 14.192 8.23564 10.7647 12.2137C8.08074 15.328 6.5043 18.9676 6.07527 23.0861C6.04783 23.3494 6.00792 23.6127 5.96302 23.9637C6.68888 23.9637 7.37608 23.955 8.06328 23.9688C8.29152 23.9725 8.58087 23.9562 8.73053 24.0828C8.93257 24.2534 9.16455 24.5756 9.12963 24.7925C9.09096 25.0357 8.79912 25.2752 8.5634 25.4369C8.42247 25.5334 8.17678 25.4833 7.97847 25.4833C6.33593 25.4858 4.69213 25.4833 3.04959 25.4858C2.6667 25.4858 2.22146 25.4582 2.09549 25.9271C1.95331 26.4537 1.86601 27.0178 2.20898 27.5106C2.29878 27.6384 2.50956 27.7011 2.67668 27.7475C2.81512 27.7864 2.97351 27.7601 3.12317 27.7601C18.375 27.7601 33.6269 27.7601 48.8787 27.7601C49.2754 27.7601 49.7904 27.8403 49.8927 27.3601C49.9987 26.8649 49.9201 26.3195 49.8553 25.8055C49.8403 25.6876 49.5572 25.566 49.3789 25.5184C49.1756 25.4645 48.9511 25.4845 48.7366 25.4845C36.6551 25.4845 24.5723 25.4845 12.4908 25.482C12.2588 25.482 12.0243 25.482 11.7961 25.4532C11.4195 25.4043 11.2037 25.1749 11.1725 24.7925C11.1413 24.4113 11.3097 24.1355 11.6776 24.034C11.8971 23.9738 12.1353 23.965 12.3648 23.965C23.3513 23.9625 34.3378 23.9625 45.3243 23.9625H46.0564C45.9628 23.2215 45.9528 22.5006 45.7695 21.8274C45.3392 20.2439 44.8266 18.683 44.3465 17.1121C44.3128 17.0005 44.2654 16.8939 44.233 16.7824C44.1058 16.3486 44.2467 16.0276 44.6533 15.8408C45.0137 15.6753 45.4215 15.8245 45.6061 16.2282C45.8755 16.8175 46.1262 17.418 46.3407 18.0286C46.9593 19.7938 47.3809 21.6067 47.5031 23.4785C47.5293 23.8747 47.659 24.0126 48.0381 23.9663C48.2339 23.9424 48.4372 23.9763 48.6343 23.96C49.9875 23.8471 50.9915 24.3248 51.5028 25.6513V27.5532L51.5016 27.5494ZM14.2493 40.2485C15.0288 39.3784 15.8931 38.7215 16.9495 38.3503C18.95 37.6458 20.9991 37.8025 23.0495 38.0206C24.021 38.1234 24.9876 38.2952 25.9604 38.3478C27.7551 38.4444 29.4663 37.9655 31.1812 37.4978C33.0295 36.9951 34.8753 36.461 36.3819 35.2348C38.1854 33.7679 39.899 32.1895 41.65 30.6587C41.7112 30.6048 41.766 30.5371 41.8072 30.4669C42.0067 30.1246 42.0018 29.7359 41.7211 29.5053C41.5403 29.3573 41.1761 29.3648 40.913 29.4112C40.6835 29.4526 40.4764 29.6381 40.2694 29.7761C38.9274 30.665 37.588 31.5601 36.246 32.449C36.0676 32.5669 35.8806 32.6922 35.6798 32.7524C33.1779 33.4971 30.7122 34.4437 28.0233 34.1679C27.9746 34.1629 27.9235 34.1679 27.8736 34.1704C27.4334 34.2042 27.0617 34.0839 26.9357 33.62C26.8085 33.1536 27.0779 32.8678 27.4658 32.6647C28.0969 32.3337 28.7392 32.0202 29.3478 31.6504C29.6022 31.4962 29.8716 31.2542 29.9789 30.9897C30.3069 30.181 29.586 29.4839 28.6431 29.6783C26.6988 30.0807 24.7606 30.5133 22.8125 30.8956C22.4072 30.9746 21.9507 30.9633 21.5504 30.863C19.9465 30.4606 18.3588 29.9904 16.7549 29.583C16.1663 29.4325 15.5489 29.2846 14.9515 29.3097C13.4075 29.3736 12.0194 29.9679 10.9306 31.0499C9.95651 32.0177 9.12963 33.1361 8.24288 34.193C7.90489 34.5954 7.57937 35.0079 7.22018 35.4505C9.57862 37.0615 11.8909 38.6425 14.2481 40.2523L14.2493 40.2485ZM15.0039 42.8312C14.8667 42.6607 14.7582 42.4425 14.5836 42.3222C11.493 40.1971 8.39503 38.082 5.29453 35.9708C4.84679 35.6661 4.61356 35.7238 4.29802 36.1801C3.90017 36.7543 3.50855 37.3323 3.12442 37.9153C2.78643 38.4281 2.82385 38.6487 3.32522 38.9923C6.3933 41.0923 9.46263 43.1898 12.5345 45.2822C12.9959 45.5969 13.2429 45.5393 13.5684 45.0679C13.965 44.4936 14.3541 43.9132 14.7407 43.3314C14.8305 43.1948 14.8941 43.0406 15.0026 42.8312H15.0039ZM30.7534 32.5681C33.4772 31.9149 36.0751 31.2479 38.0931 29.2909H31.2111C31.8122 30.4781 31.6638 31.5426 30.7534 32.5681V32.5681ZM26.0116 3.63193C26.1936 3.63193 26.3757 3.63193 26.5578 3.63193C27.4184 3.6382 27.9958 3.11915 28.1043 2.25658C28.1368 1.99581 28.0944 1.809 27.81 1.71873C26.6052 1.33384 25.4017 1.3213 24.2069 1.73378C24.0784 1.77766 23.9275 1.977 23.9188 2.1124C23.8714 2.91856 24.5785 3.64196 25.3643 3.63318C25.58 3.63068 25.7945 3.63318 26.0103 3.63318L26.0116 3.63193Z" fill="#FE724C"/>
</svg>
