<svg width="63" height="43" viewBox="0 0 63 43" fill="none" xmlns="http://www.w3.org/2000/svg">
<g clip-path="url(#clip0_275_1701)">
<path d="M0.5 30.1523C0.958252 29.1214 1.76258 28.7644 2.88195 28.7904C5.08371 28.8412 7.28785 28.8057 9.4908 28.8057C9.70442 28.8057 9.91684 28.8057 10.2104 28.8057C10.2104 27.8505 10.2235 26.9697 10.1961 26.089C10.1925 25.9625 10.0111 25.8159 9.88104 25.7213C8.75569 24.9008 8.54566 22.5139 9.60537 21.606C10.0374 21.2347 10.6746 21.0988 11.288 20.8245C11.2272 20.5833 11.1102 20.1979 11.0386 19.8054C10.9145 19.128 11.2152 18.635 11.7797 18.5381C12.3179 18.4459 12.6974 18.7875 12.8251 19.4791C13.022 20.555 13.5375 21.0054 14.6473 21.016C16.1164 21.0302 17.5854 21.0326 19.0532 21.0149C20.218 21.0007 20.8469 20.367 20.8576 19.2108C20.8707 17.7755 20.8695 16.3403 20.8576 14.9051C20.8481 13.7229 20.2024 13.0667 19.0234 13.0549C17.5544 13.0395 16.0853 13.0384 14.6175 13.0549C13.4838 13.0679 12.8716 13.6815 12.8143 14.8117C12.806 14.9689 12.8167 15.1274 12.8 15.2834C12.7439 15.8225 12.4229 16.1299 11.9229 16.1346C11.4372 16.1382 11.0839 15.8178 11.01 15.3035C10.7021 13.1684 12.3179 11.3028 14.4958 11.2839C14.9481 11.2804 15.4003 11.2839 15.9254 11.2839C15.9254 10.9978 15.9254 10.7685 15.9254 10.5391C15.9254 8.29762 15.9242 6.05612 15.9278 3.81462C15.9278 3.57935 15.8741 3.28734 15.9911 3.12419C16.1868 2.84992 16.4684 2.54845 16.7727 2.45978C17.1916 2.33683 17.54 2.60993 17.6689 3.04026C17.7346 3.26133 17.7453 3.50369 17.7453 3.73659C17.7501 6.01711 17.7489 8.29881 17.7489 10.5793C17.7489 10.7921 17.7489 11.0037 17.7489 11.2851C18.2895 11.2851 18.78 11.278 19.2704 11.2863C21.1309 11.3182 22.625 12.7901 22.6465 14.6379C22.6644 16.2304 22.6727 17.824 22.6381 19.4153C22.6274 19.9308 22.4663 20.4415 22.3684 20.9888C22.5558 21.0113 22.7777 21.0018 22.9746 21.0681C23.3064 21.178 23.6393 21.3057 23.9424 21.4783C24.9831 22.0694 24.9843 25.1207 23.8338 25.7083C23.6513 25.8017 23.5009 26.1233 23.489 26.3467C23.4472 27.1447 23.4723 27.9474 23.4723 28.7762H25.2683C24.5379 25.7343 25.464 23.3805 28.0082 21.7892C27.7218 21.0066 27.3125 20.2689 27.1956 19.4886C26.9378 17.772 27.9044 16.2304 29.5369 15.6121C29.9606 15.4513 30.0429 15.2397 30.0405 14.8401C30.025 12.3822 30.0298 9.92437 30.037 7.46652C30.0381 6.86831 30.3866 6.47936 30.8926 6.46162C31.4165 6.44271 31.7996 6.85649 31.821 7.4677C31.8258 7.60484 31.8222 7.74316 31.8222 7.8803C31.8222 10.1608 31.8377 12.4425 31.8103 14.723C31.8043 15.2184 31.9189 15.4596 32.4201 15.6641C34.5932 16.5519 35.3701 19.2025 34.0765 21.1461C33.9572 21.3246 33.8259 21.4948 33.6839 21.6911C36.3248 23.3533 37.3201 25.6799 36.5742 28.7525H39.3058C38.7306 26.6895 39.0576 24.5864 39.0122 22.5009C38.9776 20.9321 39.7736 19.9686 41.6126 19.1103C40.8858 17.8441 40.8309 16.5484 41.5816 15.1415C41.1317 15.1415 40.7689 15.1439 40.4049 15.1415C39.029 15.1285 38.2234 14.3506 38.1948 12.9887C38.1805 12.3006 38.1793 11.6126 38.1948 10.9245C38.2258 9.58625 39.0266 8.81189 40.3691 8.80716C41.5195 8.80362 42.6687 8.80716 43.8931 8.80716C43.905 8.55653 43.9253 8.33191 43.9253 8.10729C43.9277 5.84568 43.9253 3.58526 43.9289 1.32366C43.9289 1.0884 43.8752 0.801116 43.9898 0.630875C44.1688 0.364874 44.46 0.0161166 44.7201 0.000747652C45.0161 -0.0158035 45.3848 0.245469 45.6175 0.484279C45.7607 0.632057 45.738 0.965446 45.7392 1.21608C45.7476 3.51669 45.744 5.81731 45.744 8.11793C45.744 8.32836 45.744 8.5388 45.744 8.80598C46.9541 8.80598 48.1009 8.80362 49.2465 8.80598C50.6547 8.80953 51.4578 9.6028 51.4662 10.9978C51.4698 11.6658 51.4734 12.3349 51.4662 13.0029C51.4519 14.3093 50.6261 15.1203 49.2967 15.1392C48.9243 15.1439 48.552 15.1392 48.0914 15.1392C48.7919 16.5153 48.8038 17.8122 48.0233 19.1209C48.1952 19.1907 48.3515 19.2474 48.5019 19.316C49.8563 19.926 50.607 20.9605 50.6356 22.4418C50.6666 24.0142 50.6643 25.5877 50.6308 27.1601C50.6201 27.6791 50.4662 28.1945 50.3647 28.7797C50.5222 28.7868 50.7287 28.8057 50.934 28.8057C53.7121 28.8081 56.4915 28.8436 59.2696 28.7927C60.7697 28.7655 61.611 29.7432 61.4952 30.9929C61.4332 31.6561 61.4881 32.3288 61.4833 32.9979C61.4749 34.1104 60.7876 34.8599 59.6586 34.9049C58.5882 34.9474 57.5154 34.919 56.4437 34.9261C56.3089 34.9261 56.174 34.9533 55.9306 34.9805C55.9306 35.8719 56.0093 36.7598 55.9162 37.6299C55.5809 40.79 53.1751 42.9334 49.9614 42.9901C49.1284 43.0055 48.2942 42.9925 47.4601 42.9925C35.6708 42.9925 23.8816 42.9948 12.0911 42.9913C9.24975 42.9913 6.92865 41.4556 6.19951 38.9209C5.90236 37.8876 5.96799 36.7515 5.87611 35.6603C5.8582 35.4475 5.87372 35.2311 5.87372 34.9226C5.21259 34.9226 4.58608 34.9226 3.95956 34.9226C3.46312 34.9226 2.96668 34.9131 2.47144 34.9226C1.48691 34.9403 0.903357 34.3929 0.504773 33.576V30.1547L0.5 30.1523ZM7.73417 34.9214C7.73417 35.9097 7.68286 36.813 7.7473 37.7091C7.82129 38.7353 8.35592 39.5593 9.13518 40.2284C10.0445 41.0099 11.1293 41.199 12.2928 41.199C24.6978 41.1919 37.1017 41.1955 49.5067 41.1931C49.8038 41.1931 50.1022 41.1801 50.3981 41.1565C52.0999 41.0241 53.5987 39.895 53.9567 38.2517C54.1859 37.1984 54.131 36.0835 54.2085 34.9226H53.366C51.0437 34.9226 48.7215 34.9226 46.3992 34.9214C46.182 34.9214 45.9624 34.9155 45.7464 34.8883C45.2559 34.8256 45.0041 34.5041 44.985 34.0489C44.9671 33.615 45.2094 33.2935 45.645 33.18C45.8705 33.1209 46.1152 33.1232 46.3514 33.1232C50.5592 33.1197 54.767 33.1209 58.9748 33.1209C59.204 33.1209 59.4331 33.1209 59.6598 33.1209V30.6488H2.32346V33.1209H3.06931C15.7118 33.1209 28.3543 33.1209 40.998 33.122C41.2546 33.122 41.5231 33.1031 41.7665 33.1646C42.2188 33.2781 42.4849 33.5879 42.4587 34.0667C42.4324 34.5372 42.1711 34.8351 41.6854 34.8907C41.43 34.9202 41.171 34.9214 40.9133 34.9214C30.1169 34.9226 19.3194 34.9226 8.52299 34.9226H7.73417V34.9214ZM44.8156 20.8352C44.1019 20.8352 43.3895 20.8352 42.6759 20.8352C42.6365 20.8352 42.5971 20.8352 42.5565 20.8352C41.4897 20.8742 40.8441 21.4653 40.8214 22.5222C40.788 24.052 40.7892 25.5842 40.8214 27.1151C40.8429 28.1839 41.4575 28.7762 42.5482 28.7951C44.0733 28.8211 45.5996 28.8235 47.1247 28.7927C48.2202 28.7703 48.8372 28.126 48.8491 27.0371C48.8659 25.5652 48.8659 24.0934 48.8491 22.6203C48.8372 21.4925 48.1677 20.8541 47.0149 20.8363C46.2822 20.8257 45.5483 20.834 44.8156 20.834V20.8352ZM30.8651 28.8046C31.9356 28.8046 33.0072 28.7868 34.0777 28.814C34.4679 28.8247 34.641 28.6698 34.7686 28.334C35.4047 26.6647 34.8343 24.7223 33.3736 23.6477C31.8962 22.56 29.8997 22.5624 28.4462 23.6548C26.9843 24.7542 26.4258 26.6789 27.0655 28.3494C27.1979 28.6934 27.3937 28.8223 27.7708 28.8128C28.8018 28.788 29.8329 28.8046 30.864 28.8046H30.8651ZM16.8014 28.8046C18.2298 28.8046 19.6583 28.7915 21.0867 28.8128C21.5283 28.8199 21.6894 28.6745 21.6667 28.2371C21.6369 27.6684 21.65 27.0974 21.6631 26.5276C21.6715 26.1871 21.5569 26.0299 21.1846 26.031C18.2883 26.0405 15.3908 26.0405 12.4933 26.031C12.1246 26.0299 12.004 26.1729 12.016 26.5205C12.0339 27.0312 12.0577 27.5455 12.01 28.0527C11.9539 28.6355 12.1269 28.8447 12.7535 28.8211C14.1008 28.7715 15.4517 28.8057 16.8002 28.8057L16.8014 28.8046ZM44.806 13.3304C46.2142 13.3304 47.6236 13.3115 49.0317 13.341C49.5377 13.3516 49.6941 13.1755 49.6642 12.6943C49.6296 12.1458 49.6451 11.5937 49.6594 11.0439C49.669 10.6893 49.521 10.564 49.1642 10.5651C46.2679 10.5746 43.3704 10.5758 40.4741 10.5651C40.091 10.564 40.0015 10.7283 40.0099 11.064C40.0254 11.6339 40.0409 12.2061 40.0051 12.7735C39.9777 13.2204 40.14 13.3481 40.5803 13.3398C41.9885 13.3162 43.3979 13.3316 44.806 13.3316V13.3304ZM10.8333 24.2341C11.0505 24.2447 11.2248 24.2601 11.4002 24.2601C15.0125 24.2613 18.6236 24.2447 22.2359 24.2766C22.8613 24.2825 22.8923 24.013 22.8935 23.5389C22.8947 23.0625 22.8589 22.7988 22.2359 22.8036C18.6248 22.8355 15.0125 22.8189 11.4002 22.8201C11.2248 22.8201 11.0505 22.8355 10.8333 22.8461V24.2329V24.2341ZM28.9462 19.0547C28.9379 20.166 29.8198 21.0621 30.9189 21.0598C31.9809 21.0574 32.8879 20.1648 32.9022 19.1091C32.9165 18.012 32.0299 17.1265 30.9141 17.1265C29.809 17.1265 28.9546 17.9647 28.9462 19.0547ZM42.8501 17.078C42.8418 18.1562 43.6998 19.0405 44.7774 19.0642C45.8657 19.089 46.8061 18.1905 46.8204 17.1135C46.8347 16.0483 45.9576 15.1616 44.8729 15.1463C43.7332 15.1297 42.8585 15.9644 42.8501 17.078Z" fill="#FE724C"/>
</g>
<defs>
<clipPath id="clip0_275_1701">
<rect width="62" height="43" fill="white" transform="translate(0.5)"/>
</clipPath>
</defs>
</svg>
