<svg width="20" height="6" viewBox="0 0 20 6" fill="none" xmlns="http://www.w3.org/2000/svg">
<path d="M9.5 5.15271C7.91667 5.15271 0 5.04225 0 2.74193C0 2.22858 0.356899 1.79971 1.0707 1.46831C1.39515 1.31885 1.78449 1.45531 1.93374 1.78021C2.08299 2.10512 1.94672 2.495 1.62227 2.64446C1.5444 2.68345 1.47951 2.71594 1.4276 2.74843C2.14788 3.1838 4.89276 3.8531 9.5 3.8531C14.1072 3.8531 16.8586 3.1838 17.5789 2.74843C17.1766 2.508 16.002 2.07913 13.4454 1.8192C13.0885 1.78022 12.8289 1.46181 12.8678 1.10442C12.9068 0.747023 13.2182 0.4871 13.5816 0.526089C19.013 1.07842 19.013 2.33255 19.013 2.74193C19.013 5.03575 11.0963 5.15271 9.51298 5.15271H9.5Z" fill="#FE724C"/>
</svg>
