<svg width="49" height="49" viewBox="0 0 49 49" fill="none" xmlns="http://www.w3.org/2000/svg">
<g clip-path="url(#clip0_275_1709)">
<path d="M0 25.461V23.1637C0.508752 21.7077 1.55182 21.1094 3.06274 21.2347C3.43472 21.2653 3.81181 21.2398 4.24642 21.2398C4.15566 21.025 4.1007 20.8806 4.03423 20.7399C3.36058 19.2979 2.68821 17.8559 2.01072 16.4165C1.59145 15.5255 1.36519 14.5859 1.65664 13.6373C1.88545 12.8933 2.28555 12.203 2.61023 11.4884C2.64858 11.381 2.53609 11.2288 2.43255 11.0703C1.62085 9.84053 0.810424 8.6069 0 7.37455V6.32245C0.79125 4.57492 1.66048 4.12365 3.41299 4.55191C3.57021 2.7494 4.03295 2.03863 5.2652 1.70497C6.38241 1.402 7.25419 1.82258 8.17838 3.12141C8.67308 2.47455 9.28409 2.03863 10.129 2.00795C11.5684 1.95426 12.7099 3.02937 12.7188 4.47521C12.7265 5.81238 12.7201 7.14956 12.7201 8.45606C13.3362 8.77309 13.9932 9.10931 14.6758 9.45958C15.9222 7.53307 17.4612 5.92871 19.973 5.73824C22.5232 5.5452 24.2769 6.88494 25.6485 8.72707C26.4168 8.27325 27.1288 7.79002 27.8957 7.42569C28.2664 7.24927 28.4083 7.10098 28.4224 6.68679C28.5502 3.08561 32.1025 0.673326 35.5014 1.86988C35.7916 1.97215 35.9284 1.94147 36.1227 1.69347C37.8816 -0.544963 41.2358 -0.567973 43.019 1.64617C43.8729 2.70722 44.1669 3.93062 43.9355 5.29336C44.0569 5.35345 44.1681 5.41097 44.2819 5.46339C47.608 7.03323 48.4184 11.3107 45.8785 13.9671C45.6433 14.2126 45.656 14.3813 45.78 14.6651C46.7234 16.832 46.57 18.908 45.2112 20.8678C45.1435 20.9662 45.0808 21.0698 44.9734 21.2385C45.5346 21.2385 46.0229 21.2308 46.5112 21.2398C47.9774 21.2653 48.9936 22.2983 49 23.7556C49.0115 26.2574 48.6549 28.7093 47.9365 31.1011C46.3054 36.5304 43.3654 41.0545 38.669 44.3412C38.4428 44.4998 38.3737 44.6685 38.3763 44.9293C38.3852 45.6145 38.4389 46.3099 38.3418 46.9824C38.1858 48.0498 37.4291 48.6417 36.464 48.9996H12.5373C12.4849 48.9677 12.4363 48.9255 12.3801 48.9063C11.2207 48.4947 10.6301 47.6765 10.6199 46.4621C10.616 45.9366 10.6429 45.4087 10.6058 44.8845C10.593 44.6992 10.4742 44.4614 10.3259 44.3553C4.54042 40.2006 1.4176 34.4594 0.286333 27.5306C0.173845 26.8442 0.0945921 26.1513 0 25.4622V25.461ZM24.5275 22.8748C17.272 22.8748 10.0153 22.8748 2.75979 22.8748C1.89184 22.8748 1.61701 23.1522 1.63747 24.0279C1.71544 27.3453 2.40059 30.531 3.73639 33.5697C5.36491 37.2706 7.6952 40.4256 10.9944 42.8225C11.4073 43.1217 11.8151 43.284 12.3468 43.2827C19.794 43.2648 27.2413 43.2712 34.6885 43.2712C36.7618 43.2712 38.5544 42.5545 40.0662 41.121C40.1007 41.0878 40.1352 41.0545 40.1684 41.02C44.8303 36.3348 47.1069 30.6371 47.36 24.0816C47.3958 23.1394 47.1273 22.8748 46.198 22.8748C38.9745 22.8748 31.7497 22.8748 24.5262 22.8748H24.5275ZM33.6326 21.2155C33.7758 21.2321 33.8384 21.2449 33.901 21.2449C36.6596 21.2449 39.4181 21.2513 42.1766 21.2372C42.3798 21.2372 42.6074 21.1324 42.7812 21.0122C44.8213 19.6047 45.3288 16.8741 43.9559 14.7482C43.5073 14.0528 43.5648 13.7818 44.2218 13.2653C45.4311 12.3142 45.9564 11.069 45.6445 9.55801C45.3454 8.10706 44.4148 7.18408 43.0011 6.75582C42.0935 6.48097 41.9452 6.21123 42.2328 5.28953C42.6713 3.88204 41.9887 2.41447 40.6401 1.86733C39.2992 1.32402 37.7844 1.90696 37.1133 3.22624C36.68 4.07763 36.3873 4.15178 35.5321 3.70051C34.1887 2.99229 32.8478 3.02553 31.6117 3.914C30.382 4.79736 29.8822 6.0361 30.1212 7.54713C30.2299 8.22978 29.9998 8.58134 29.3274 8.71173C28.3943 8.89326 27.5979 9.32407 26.9115 9.98115C26.6622 10.2189 26.6571 10.4107 26.7964 10.7188C28.0951 13.5926 28.7611 16.5942 28.5119 19.762C28.4735 20.2465 28.3367 20.722 28.2383 21.2411C29.3849 21.2411 30.4996 21.2513 31.6142 21.227C31.7318 21.2244 31.8929 21.0455 31.9517 20.9125C32.2035 20.3462 32.3876 19.7466 32.6701 19.1982C32.8746 18.8006 32.7787 18.536 32.5346 18.2177C31.9159 17.4072 31.3215 16.5788 30.7258 15.7504C30.3935 15.2877 30.4369 14.8121 30.8153 14.5181C31.2013 14.219 31.6986 14.3212 32.0565 14.7827C32.2713 15.0601 32.4732 15.3465 32.6816 15.629C32.9769 16.0304 33.2721 16.4305 33.6109 16.8908C34.0672 15.776 34.4673 14.7546 34.907 13.7524C35.0656 13.3906 35.0553 13.1311 34.8022 12.8076C34.1542 11.9805 33.5508 11.1176 32.9321 10.2675C32.7059 9.95687 32.6547 9.62321 32.8631 9.28572C33.0612 8.96357 33.3821 8.82678 33.7272 8.93545C33.9496 9.00576 34.1682 9.18729 34.3152 9.37521C34.8329 10.0374 35.3199 10.7239 35.8491 11.4423C36.3886 10.1294 36.8999 8.8792 37.4163 7.63023C37.6694 7.01917 38.0721 6.80056 38.5527 6.99999C39.0384 7.20325 39.1829 7.65068 38.94 8.24768C38.4798 9.38288 38.012 10.5142 37.5505 11.6482C37.5007 11.7696 37.4713 11.8987 37.4201 12.0623C37.8982 11.9895 38.3213 11.9256 38.7431 11.8591C39.1356 11.7964 39.528 11.7312 39.9204 11.666C40.5302 11.5663 40.9597 11.8207 41.044 12.3308C41.1207 12.7936 40.7679 13.2039 40.2004 13.296C39.1484 13.466 38.0951 13.6335 37.0418 13.792C36.7657 13.8342 36.5931 13.9441 36.4857 14.2241C36.1329 15.1445 35.7494 16.0534 35.38 16.9675C35.3123 17.1336 35.2547 17.3037 35.1768 17.5133C36.0537 17.3765 36.8539 17.2513 37.6528 17.126C38.2906 17.0263 38.7022 17.2564 38.7841 17.76C38.871 18.2957 38.5412 18.6587 37.8893 18.7597C36.8513 18.9208 35.8146 19.0832 34.7792 19.2621C34.6271 19.289 34.4175 19.3785 34.3612 19.4986C34.1043 20.0407 33.8934 20.6044 33.6403 21.2206L33.6326 21.2155ZM24.222 21.2398H25.1155C26.1015 21.2398 26.6848 20.7523 26.8654 19.7773C26.8885 19.652 26.8987 19.5242 26.9038 19.3976C27.015 16.4088 26.4257 13.5593 25.0209 10.922C24.5428 10.0259 23.8832 9.17578 23.1444 8.47779C21.5708 6.99232 19.4464 6.95269 17.8166 8.37296C17.0982 8.99809 16.4641 9.78556 15.9873 10.6114C14.5058 13.1784 13.9204 16.0048 13.9063 18.9464C13.9025 19.6009 14.1249 20.258 14.2693 20.9074C14.2975 21.0314 14.4445 21.2193 14.5442 21.2232C15.2332 21.2513 15.9234 21.2372 16.629 21.2372C16.0436 18.9898 16.5178 17.3727 18.0479 16.2759C19.4221 15.2902 21.2487 15.2583 22.6727 16.194C24.2629 17.2385 24.7627 18.8275 24.2245 21.2398H24.222ZM12.164 18.4005C12.04 18.4363 11.8751 18.4862 11.709 18.5335C11.5402 18.582 11.3741 18.6345 11.2041 18.6741C10.726 18.7879 10.2926 18.5705 10.1623 18.1576C10.0178 17.6961 10.2313 17.2781 10.7285 17.1042C11.1337 16.9623 11.5454 16.8345 11.9621 16.7348C12.274 16.6606 12.3992 16.4881 12.4363 16.1825C12.6357 14.5462 13.055 12.9662 13.6967 11.4487C13.8117 11.1777 13.7555 11.009 13.5586 10.8236C12.8799 10.1857 12.0694 9.90829 11.1823 10.164C9.04377 10.7814 6.90778 11.4129 4.80119 12.1314C3.27238 12.653 2.73422 14.4772 3.61367 15.854C3.74662 15.8156 3.88339 15.7773 4.02017 15.7364C5.16294 15.3925 6.30316 15.0435 7.44721 14.7086C7.88182 14.582 8.20395 14.7789 8.38802 15.1624C8.56698 15.5357 8.47622 15.8898 8.14643 16.1416C8.0007 16.2528 7.80513 16.3078 7.62489 16.3641C6.53708 16.7041 5.44544 17.0365 4.30522 17.3868C4.89067 18.6345 5.448 19.8451 6.03472 21.0416C6.08713 21.149 6.31722 21.2206 6.4655 21.2219C7.63001 21.2359 8.79451 21.2296 9.95902 21.2296C10.818 21.2296 11.677 21.2296 12.5258 21.2296C12.4031 20.2669 12.2855 19.344 12.1653 18.398L12.164 18.4005ZM36.7516 44.9625H12.2484C12.2484 45.3793 12.2484 45.7602 12.2484 46.1425C12.2484 47.137 12.4862 47.3723 13.4973 47.3723C20.8307 47.3723 28.1654 47.3723 35.4989 47.3723C35.6421 47.3723 35.7865 47.3799 35.9297 47.3659C36.4167 47.3173 36.7248 47.0182 36.7452 46.5285C36.7669 46.021 36.7503 45.511 36.7503 44.9625H36.7516ZM20.3846 21.2398C20.8627 21.2398 21.342 21.2206 21.8188 21.2462C22.132 21.2628 22.3199 21.1439 22.4797 20.8895C23.1048 19.8937 22.9322 18.5999 22.0553 17.801C21.1886 17.0109 19.8541 16.9547 18.9363 17.668C17.9763 18.4146 17.7066 19.6993 18.2742 20.7527C18.4557 21.0889 18.6679 21.2922 19.0935 21.2487C19.5192 21.2065 19.9525 21.2398 20.3833 21.2398H20.3846ZM8.31772 9.30745C7.75272 7.45381 7.21329 5.66153 6.65468 3.87565C6.50257 3.38859 6.07946 3.18533 5.64741 3.32595C5.19234 3.47424 4.9891 3.88204 5.13865 4.39211C5.46717 5.50302 5.80335 6.61264 6.14082 7.72099C6.3479 8.39981 6.56265 9.07607 6.78251 9.78173C7.30532 9.62065 7.78468 9.47236 8.31772 9.30617V9.30745ZM9.94623 8.81144C10.1099 8.76287 10.2722 8.68361 10.4422 8.66827C10.8896 8.62736 10.9957 8.37935 10.9906 7.96516C10.9804 7.06007 11.0174 6.15371 11.0328 5.24734C11.0379 4.93031 11.0673 4.60943 11.0264 4.29751C10.974 3.90249 10.5982 3.6187 10.207 3.65321C9.81969 3.68773 9.50395 3.90761 9.48222 4.29112C9.39658 5.80343 9.14987 7.33876 9.94751 8.81017L9.94623 8.81144ZM5.13098 10.265C4.97376 8.63247 3.92813 7.52412 3.05635 6.32885C2.79175 5.96579 2.32901 5.94022 1.99027 6.18439C1.62468 6.44773 1.53265 6.91306 1.81642 7.32214C2.57572 8.4177 3.35419 9.49921 4.13649 10.5999L5.13098 10.265Z" fill="#FE724C"/>
</g>
<defs>
<clipPath id="clip0_275_1709">
<rect width="49" height="49" fill="white"/>
</clipPath>
</defs>
</svg>
